<?xml version="1.0" encoding="UTF-8"?>
<svg id="Layer_1" xmlns="http://www.w3.org/2000/svg" version="1.1" viewBox="0 0 400 50">
  <!-- generator: adobe illustrator 30.1.0, svg export plug-in . svg version: 2.1.1 build 136)  -->
  <!-- farven arver nu fra css med currentColor -->
  <path fill="currentColor" d="M28.85,27.45c0,1.17-.22,2.32-.65,3.46-.43,1.14-1.16,2.16-2.18,3.08-1.02.91-2.36,1.65-4.02,2.2s-3.72.83-6.18.83H1.17l1.93-1.12V6.69l-1.93-1.12h4.09c3.21.9,6.24,2.15,9.1,3.75,2.86,1.6,5.36,3.4,7.5,5.39,2.14,1.99,3.84,4.09,5.1,6.29,1.26,2.2,1.89,4.35,1.89,6.45ZM15.82,36.66c1.8,0,3.38-.24,4.74-.72,1.36-.48,2.49-1.14,3.39-1.98.9-.84,1.58-1.82,2.04-2.94.46-1.12.7-2.31.7-3.57,0-2.67-.58-5.12-1.75-7.37s-2.73-4.28-4.7-6.09c-1.96-1.81-4.24-3.4-6.83-4.76-2.59-1.36-5.31-2.49-8.16-3.39v30.83h10.56Z"/>
  <path fill="currentColor" d="M34.38,21.29c0-2.4.39-4.6,1.17-6.61.78-2.01,1.89-3.74,3.33-5.19s3.17-2.58,5.19-3.39c2.02-.81,4.26-1.21,6.72-1.21s4.7.44,6.72,1.33c2.02.88,3.75,2.08,5.19,3.6,1.44,1.51,2.55,3.26,3.33,5.24.78,1.98,1.17,4.06,1.17,6.25,0,2.4-.39,4.6-1.17,6.61-.78,2.01-1.89,3.74-3.33,5.19-1.44,1.45-3.17,2.58-5.19,3.39-2.02.81-4.26,1.21-6.72,1.21s-4.7-.45-6.72-1.35c-2.02-.9-3.75-2.1-5.19-3.6-1.44-1.5-2.55-3.24-3.33-5.21-.78-1.98-1.17-4.06-1.17-6.25ZM36.49,19.18c0,2.43.4,4.74,1.19,6.94.79,2.2,1.89,4.13,3.28,5.8s3.02,2.98,4.88,3.96c1.86.97,3.83,1.46,5.93,1.46,1.8,0,3.5-.31,5.1-.92,1.6-.61,3.02-1.51,4.25-2.7,1.23-1.18,2.2-2.64,2.92-4.36.72-1.72,1.08-3.71,1.08-5.95,0-2.43-.4-4.74-1.21-6.94-.81-2.2-1.9-4.13-3.28-5.8-1.38-1.66-3-2.98-4.85-3.95-1.86-.97-3.85-1.46-5.98-1.46-1.8,0-3.5.31-5.1.92-1.6.61-3.01,1.51-4.22,2.7-1.21,1.18-2.18,2.64-2.9,4.36-.72,1.72-1.08,3.71-1.08,5.95Z"/>
  <path fill="currentColor" d="M87.36,20.39l12.63-13.71-1.03-1.12h3.37l-1.98,1.12-12.81,13.89,14.16,15.32,1.93,1.12h-5.98l1.03-1.12-12.63-13.71-12.67,13.71,1.03,1.12h-3.33l1.93-1.12,12.81-13.89-14.11-15.32-1.93-1.12h5.93l-1.03,1.12,12.67,13.71Z"/>
  <path fill="currentColor" d="M138.55,35.9l-5.12-10.11h-18.2l-5.12,10.11,1.62,1.12h-4.18l2.29-1.12,14.38-28.31-2.7-2.02h4.04l15.46,30.33,2.25,1.12h-6.34l1.62-1.12ZM133.29,25.56l-8.94-17.66-8.99,17.66h17.93Z"/>
  <path fill="currentColor" d="M165.73,20.44l-1.53-3.37h-12.09v18.83l1.93,1.12h-6.02l1.93-1.12V6.69l-1.93-1.12h23.91l1.84,3.77-5.39-3.51h-16.27v10.96h12.09l1.53-3.37v7.01Z"/>
  <path fill="currentColor" d="M181.19,35.9V6.69l-1.93-1.12h6.02l-1.93,1.12v30.02h16.27l5.39-3.46-1.84,3.77h-23.91l1.93-1.12Z"/>
  <path fill="currentColor" d="M208.88,21.29c0-2.4.39-4.6,1.17-6.61.78-2.01,1.89-3.74,3.33-5.19,1.44-1.45,3.17-2.58,5.19-3.39s4.26-1.21,6.72-1.21,4.7.44,6.72,1.33c2.02.88,3.75,2.08,5.19,3.6,1.44,1.51,2.55,3.26,3.33,5.24.78,1.98,1.17,4.06,1.17,6.25,0,2.4-.39,4.6-1.17,6.61-.78,2.01-1.89,3.74-3.33,5.19-1.44,1.45-3.17,2.58-5.19,3.39-2.02.81-4.26,1.21-6.72,1.21s-4.7-.45-6.72-1.35c-2.02-.9-3.75-2.1-5.19-3.6-1.44-1.5-2.55-3.24-3.33-5.21-.78-1.98-1.17-4.06-1.17-6.25ZM210.99,19.18c0,2.43.4,4.74,1.19,6.94.79,2.2,1.89,4.13,3.28,5.8s3.02,2.98,4.88,3.96c1.86.97,3.83,1.46,5.93,1.46,1.8,0,3.5-.31,5.1-.92,1.6-.61,3.02-1.51,4.25-2.7,1.23-1.18,2.2-2.64,2.92-4.36.72-1.72,1.08-3.71,1.08-5.95,0-2.43-.4-4.74-1.21-6.94s-1.9-4.13-3.28-5.8c-1.38-1.66-3-2.98-4.85-3.95-1.86-.97-3.85-1.46-5.98-1.46-1.8,0-3.5.31-5.1.92-1.6.61-3.01,1.51-4.22,2.7-1.21,1.18-2.18,2.64-2.9,4.36-.72,1.72-1.08,3.71-1.08,5.95Z"/>
  <path fill="currentColor" d="M267.3,6.69l5.39,10.61,5.39-10.61-1.62-1.12h4.18l-2.25,1.12-5.57,10.92,8.67,17.08,14.25-28-1.62-1.12h4.18l-2.25,1.12-15.46,30.33h-.27l.18-.4-.22.4-8.81-17.35-8.85,17.35h-.27l.18-.4-.22.4-15.41-30.33-2.25-1.12h6.29l-1.62,1.12,14.2,28,7.77-15.32-6.43-12.67-2.25-1.12h6.29l-1.62,1.12Z"/>
  <path fill="currentColor" d="M320.77,20.44l-1.53-3.37h-12.09v19.68h17.17l5.39-3.5-1.84,3.77h-24.81l1.93-1.12V6.69l-1.93-1.12h23.91l1.84,3.77-5.39-3.51h-16.27v10.96h12.09l1.53-3.37v7.01Z"/>
  <path fill="currentColor" d="M341.26,22.55h6.25c3.09,0,5.52-.64,7.3-1.93,1.78-1.29,2.67-3.15,2.67-5.57,0-1.83-.5-3.33-1.51-4.52s-2.31-2.13-3.93-2.83c-1.62-.7-3.46-1.19-5.53-1.46s-4.18-.4-6.34-.4h-.81v30.06l1.93,1.12h-6.02l1.93-1.12V6.69l-1.93-1.12h4.9c2.88,0,5.51.18,7.91.54s4.45.92,6.16,1.69c1.71.76,3.03,1.76,3.98,2.99.94,1.23,1.42,2.71,1.42,4.45,0,1.35-.31,2.51-.94,3.48-.63.97-1.49,1.76-2.58,2.36-1.09.6-2.38,1.04-3.87,1.33-1.48.29-3.06.43-4.74.43h-3.01c1.14.09,2.29.21,3.46.36,1.17.15,2.34.43,3.53.85,1.18.42,2.35,1,3.5,1.75,1.15.75,2.28,1.77,3.39,3.06,1.17,1.35,2.25,2.55,3.24,3.59.99,1.05,1.94,1.94,2.85,2.67.91.73,1.81,1.32,2.7,1.75.88.43,1.8.71,2.76.83-1.23,0-2.39-.16-3.48-.47-1.09-.31-2.17-.79-3.24-1.42-1.06-.63-2.14-1.43-3.24-2.4s-2.27-2.13-3.53-3.48c-1.68-1.8-3.29-3.17-4.83-4.13-1.54-.96-2.97-1.65-4.29-2.09-1.32-.43-2.49-.68-3.53-.74-1.03-.06-1.88-.1-2.54-.13v-.27Z"/>
  <path fill="currentColor" d="M385.13,5.29c-1.32,0-2.43.15-3.33.45-.9.3-1.62.69-2.16,1.17-.54.48-.92,1.03-1.15,1.64-.22.61-.34,1.24-.34,1.86,0,1.05.3,1.96.9,2.74.6.78,1.39,1.47,2.38,2.07.99.6,2.11,1.16,3.37,1.69,1.26.52,2.54,1.06,3.84,1.6,1.3.54,2.58,1.12,3.84,1.75,1.26.63,2.38,1.36,3.37,2.18.99.82,1.78,1.79,2.38,2.9.6,1.11.9,2.41.9,3.91,0,1.65-.43,3.02-1.28,4.11-.85,1.09-1.96,1.96-3.3,2.61-1.35.64-2.84,1.09-4.47,1.35-1.63.25-3.24.38-4.83.38-2.43,0-4.51-.24-6.25-.72s-3.18-1.12-4.31-1.93c-1.14-.81-1.98-1.74-2.52-2.79-.54-1.05-.81-2.14-.81-3.28,0-1.68.61-3.28,1.84-4.81s2.92-2.7,5.08-3.51c-1.02.54-1.84,1.16-2.47,1.87-.63.7-1.11,1.42-1.44,2.16-.33.73-.55,1.48-.67,2.22-.12.75-.18,1.44-.18,2.07,0,1.62.33,2.97.99,4.07.66,1.09,1.53,1.96,2.63,2.61,1.09.65,2.34,1.1,3.75,1.37s2.86.4,4.36.4c1.14,0,2.39-.11,3.75-.31s2.64-.61,3.82-1.19c1.18-.58,2.17-1.42,2.97-2.49.79-1.08,1.19-2.47,1.19-4.18,0-1.23-.3-2.3-.9-3.21-.6-.91-1.39-1.73-2.38-2.45-.99-.72-2.11-1.37-3.37-1.96-1.26-.58-2.55-1.15-3.87-1.69-1.32-.54-2.61-1.09-3.86-1.66-1.26-.57-2.38-1.19-3.37-1.87-.99-.67-1.78-1.44-2.38-2.31-.6-.87-.9-1.87-.9-3.01,0-.78.18-1.54.54-2.29.36-.75.92-1.42,1.69-2,.76-.58,1.73-1.05,2.9-1.39,1.17-.34,2.56-.52,4.18-.52.96,0,1.89.06,2.81.18.91.12,1.73.29,2.45.49.72.21,1.29.46,1.73.76.43.3.65.63.65.99,0,.42-.13.7-.4.85-.27.15-.5.22-.67.22-.51,0-1.01-.16-1.5-.49-.49-.33-1-.68-1.51-1.06-.51-.37-1.06-.73-1.66-1.06-.6-.33-1.27-.49-2.02-.49Z"/>
</svg>