<?xml version="1.0" encoding="UTF-8"?>
<svg version="1.1" xmlns="http://www.w3.org/2000/svg" width="4004" height="361">
<path d="M0 0 C22.77 0 45.54 0 69 0 C69 0.66 69 1.32 69 2 C67.13002213 3.35838015 65.20205007 4.6374563 63.25 5.875 C59.38857619 8.3280301 56.17661456 10.71978157 53 14 C53.2562616 14.49999512 53.51252319 14.99999023 53.77655029 15.51513672 C57.1040126 22.00856781 60.42797383 28.5037862 63.75 35 C64.28933167 36.05465454 64.82866333 37.10930908 65.38433838 38.19592285 C73.75892073 54.58020635 82.04969953 71.00393115 90.22558594 87.48828125 C93.99093522 95.06776525 97.8219119 102.602083 101.7890625 110.078125 C108.47088918 122.68006681 114.76753689 135.47493356 121.11376953 148.24804688 C128.90045731 163.91481642 128.90045731 163.91481642 136.96875 179.4375 C143.79884252 192.29194595 150.20875588 205.35925112 156.68652344 218.39355469 C162.41483324 229.91341536 168.16707252 241.4083886 174.20559692 252.769104 C179.96955003 263.65655493 185.39324345 274.71873124 190.875 285.75 C193.07837618 290.18346766 195.28448413 294.61556085 197.4921875 299.046875 C197.9870163 300.04483093 198.48184509 301.04278687 198.9916687 302.07098389 C201.51839623 307.14227531 204.12755165 312.1157366 207 317 C210.04580304 313.42311205 212.24060303 309.88036164 214.32470703 305.67529297 C214.63109604 305.06134674 214.93748505 304.44740051 215.25315857 303.81484985 C216.26032244 301.79336536 217.25898729 299.76780326 218.2578125 297.7421875 C218.96741739 296.31482087 219.6776235 294.88775298 220.38839722 293.46096802 C222.2605547 289.69955756 224.12585138 285.93478916 225.98931885 282.16906738 C229.3001469 275.48121964 232.62261286 268.79914273 235.9453125 262.1171875 C236.30314568 261.39701195 236.66097885 260.6768364 237.02965546 259.93483734 C241.39261077 251.15760803 245.81911253 242.42523578 250.43032837 233.77511597 C256.00183748 223.29374298 261.21878036 212.62955311 266.5 202 C273.53051039 187.84963537 280.60998387 173.74015267 288.05334473 159.80151367 C288.52193909 158.9097644 288.52193909 158.9097644 289 158 C289.37483017 157.32518585 289.74966034 156.6503717 290.135849 155.95510864 C291.42561027 153.03707302 290.76779519 151.04244628 290 148 C289.01026009 145.56459187 289.01026009 145.56459187 287.68359375 143.1953125 C286.9261084 141.76735352 286.9261084 141.76735352 286.15332031 140.31054688 C285.58709961 139.25931641 285.02087891 138.20808594 284.4375 137.125 C283.16682306 134.72323584 281.89922476 132.32010958 280.63671875 129.9140625 C280.28558014 129.24566345 279.93444153 128.5772644 279.57266235 127.88861084 C273.60990906 116.48663934 267.93986626 104.93270449 262.21481323 93.41021729 C260.72296937 90.40807713 259.22936014 87.40682706 257.734375 84.40625 C257.24905304 83.43186478 256.76373108 82.45747955 256.26370239 81.4535675 C253.21541286 75.35875156 250.06891372 69.32545287 246.85546875 63.31640625 C243.42373251 56.89446029 240.3034622 50.38561537 237.31640625 43.74609375 C236.13027727 41.17063806 234.93862529 38.59782671 233.74438477 36.02612305 C232.95310361 34.29301953 232.18136498 32.55086651 231.42895508 30.80053711 C225.46025 17.00246862 219.08189162 10.58180944 205.10617065 4.87185669 C202.33058621 3.72289383 199.66801587 2.37767322 197 1 C197 0.67 197 0.34 197 0 C220.1 0 243.2 0 267 0 C263.53822598 3.46177402 260.73115577 6.09137595 256.8125 8.8125 C255.52279297 9.71935547 255.52279297 9.71935547 254.20703125 10.64453125 C252 12 252 12 250 12 C250.43393066 12.86713623 250.86786133 13.73427246 251.31494141 14.62768555 C254.99796692 21.98979944 258.67607489 29.3543385 262.3480835 36.72195435 C264.47591488 40.99047574 266.60555839 45.25809194 268.73535156 49.52563477 C269.82559161 51.71114723 270.91511375 53.89701798 272.00390625 56.08325195 C277.72781397 67.57503114 283.49302277 79.03490737 289.5088501 90.37698364 C293.50470092 97.91945547 297.32842208 105.54327344 301.125 113.1875 C301.80188846 114.54632105 302.4789717 115.90504509 303.15625 117.26367188 C304.77305442 120.50801228 306.38730961 123.75361223 308 127 C313.7226279 116.24990073 319.33523095 105.45663003 324.71606445 94.53076172 C327.62018239 88.66366241 330.64436926 82.86731234 333.70703125 77.08203125 C339.02361415 67.0275161 344.12189728 56.87020687 349.1875 46.6875 C350.04603014 44.96539815 350.9047538 43.24339277 351.76367188 41.52148438 C353.41294556 38.21452657 355.06120317 34.907066 356.70849609 31.59912109 C359.79826268 25.39571178 362.89838209 19.19749091 366 13 C364.53626953 11.96939453 364.53626953 11.96939453 363.04296875 10.91796875 C361.75770492 10.00796443 360.4725546 9.09779976 359.1875 8.1875 C358.54490234 7.73568359 357.90230469 7.28386719 357.24023438 6.81835938 C356.61826172 6.37685547 355.99628906 5.93535156 355.35546875 5.48046875 C354.49924927 4.87561646 354.49924927 4.87561646 353.62573242 4.25854492 C352 3 352 3 349 0 C364.51 0 380.02 0 396 0 C393.3374619 2.6625381 391.67174282 3.85178931 388.40234375 5.48046875 C387.51869141 5.92197266 386.63503906 6.36347656 385.72460938 6.81835938 C384.34499023 7.49608398 384.34499023 7.49608398 382.9375 8.1875 C382.01388672 8.65091797 381.09027344 9.11433594 380.13867188 9.59179688 C373.26705173 13 373.26705173 13 371 13 C370.74202637 13.84643066 370.48405273 14.69286133 370.21826172 15.56494141 C368.92757945 19.20419982 367.30082755 22.55339102 365.5078125 25.9609375 C365.16580307 26.61993042 364.82379364 27.27892334 364.47142029 27.95788574 C363.73931119 29.36771922 363.0053053 30.77656908 362.26956177 32.18450928 C360.32835665 35.89963582 358.40098211 39.62192682 356.47265625 43.34375 C356.0876445 44.0860788 355.70263275 44.82840759 355.30595398 45.5932312 C351.99360772 51.98897779 348.76267011 58.42232055 345.5625 64.875 C342.16663617 71.71332418 338.71065261 78.50923535 335.125 85.25 C329.04645235 96.67761954 323.15681306 108.24114491 317.59936523 119.93188477 C316 123 316 123 314.15258789 125.37866211 C312.17436426 128.0932983 311.36212055 129.63563137 311 133 C312.76030344 139.92936921 316.65532789 146.21588276 320.0625 152.4375 C320.96784775 154.15628284 321.86957431 155.87697821 322.76757812 157.59960938 C325.02813255 161.91502708 327.33096089 166.20619073 329.64727783 170.49188232 C337.88788104 185.77100102 345.67811268 201.26332149 353.39550781 216.81152344 C358.17048397 226.42505288 362.96883795 236.01750487 368 245.5 C374.01175906 256.83067777 379.69313233 268.32297269 385.39550781 279.81152344 C391.76362071 292.6325384 398.27306499 305.36328478 405 318 C411.00106291 306.74810555 416.82112086 295.41749666 422.5 284 C426.50146619 275.95556709 430.51139214 267.92305144 434.75 260 C439.86328038 250.43264264 444.664625 240.70961436 449.5 231 C454.5912558 220.77666114 459.67786278 210.56275052 465.07421875 200.49609375 C469.72339743 191.75309902 474.08608181 182.86320162 478.5 174 C483.59126977 163.77666814 488.67786258 153.56275089 494.07421875 143.49609375 C498.72339743 134.75309902 503.08608181 125.86320162 507.5 117 C512.59126977 106.77666814 517.67786258 96.56275089 523.07421875 86.49609375 C528.1672447 76.91842379 532.93110136 67.16957556 537.76467896 57.4593811 C542.74850692 47.45009517 547.73739079 37.45111649 553.05859375 27.61523438 C555.62471508 22.84749758 557.85682428 17.97168172 560 13 C558.89591797 12.22076172 558.89591797 12.22076172 557.76953125 11.42578125 C556.79371094 10.72839844 555.81789063 10.03101563 554.8125 9.3125 C553.84957031 8.62800781 552.88664062 7.94351562 551.89453125 7.23828125 C549 5 549 5 544 0 C559.18 0 574.36 0 590 0 C587.3374619 2.6625381 585.67174282 3.85178931 582.40234375 5.48046875 C581.51869141 5.92197266 580.63503906 6.36347656 579.72460938 6.81835938 C578.80486328 7.27017578 577.88511719 7.72199219 576.9375 8.1875 C575.55208008 8.88262695 575.55208008 8.88262695 574.13867188 9.59179688 C567.26705173 13 567.26705173 13 565 13 C564.773125 13.77988281 564.54625 14.55976563 564.3125 15.36328125 C562.57693167 20.17225184 560.30956619 24.63175194 558 29.1875 C557.50580566 30.16944336 557.01161133 31.15138672 556.50244141 32.16308594 C553.14534873 38.80851804 549.69204157 45.39788741 546.19335938 51.96948242 C541.81956006 60.24133743 537.66913111 68.62383762 533.5 77 C528.70643551 86.63056465 523.88743912 96.23434735 518.81640625 105.72265625 C514.36080098 114.11055745 510.16908319 122.63122942 505.9382019 131.1338501 C501.68104904 139.68556945 497.36772501 148.19422524 492.8671875 156.62109375 C488.7689854 164.34254076 484.89402898 172.17433696 481 180 C476.76899101 188.50284916 472.5395437 196.99809245 468.0625 205.375 C463.3669283 214.16289288 458.93941363 223.08099489 454.5 232 C449.70641457 241.63055407 444.88743939 251.23434685 439.81640625 260.72265625 C435.36150535 269.10923144 431.17039768 277.62852955 426.94021606 286.12982178 C422.64284065 294.76242507 418.28932484 303.35276588 413.74853516 311.8605957 C407.59451101 323.4491566 401.83467311 335.24845748 396 347 C394.35 347 392.7 347 391 347 C390.47680176 345.9483667 389.95360352 344.8967334 389.41455078 343.81323242 C387.42242806 339.81051631 385.42741388 335.80924663 383.43164062 331.80834961 C382.57769413 330.09551036 381.72447285 328.38230931 380.87207031 326.66870117 C376.37036143 317.62005347 371.82259192 308.60402737 367.0859375 299.67578125 C360.84691822 287.90899426 354.95444358 275.97110419 349.03173828 264.04296875 C343.71451094 253.34118496 338.34373981 242.6809156 332.74157715 232.12524414 C327.16313696 221.58088103 321.90776297 210.87295284 316.60449219 200.18847656 C310.54626957 187.99136824 304.37624907 175.86779224 297.97045898 163.84912109 C296.95384405 161.91205405 295.9722384 159.95966379 295 158 C289.7088048 167.93964217 284.50735765 177.91396752 279.5 188 C276.16652712 194.71342961 272.77304615 201.38411466 269.25 208 C264.8544388 216.2613642 260.66725384 224.62208746 256.5 233 C252.02824035 241.98999207 247.50190331 250.94024362 242.77734375 259.80078125 C239.0611539 266.80531014 235.5300195 273.90050107 232 281 C227.74154706 289.56450851 223.41925926 298.08465045 218.91601562 306.5234375 C214.0999261 315.60385507 209.56189437 324.82655279 205.00024414 334.03662109 C204.68422745 334.67288422 204.36821075 335.30914734 204.0426178 335.96469116 C203.17523683 337.711338 202.31020222 339.45914947 201.4453125 341.20703125 C200 344 200 344 198 347 C195.67260742 346.79248047 195.67260742 346.79248047 193 346 C191.48950195 343.98486328 191.48950195 343.98486328 190.23828125 341.3203125 C189.75810547 340.32644531 189.27792969 339.33257812 188.78320312 338.30859375 C188.29787109 337.25800781 187.81253906 336.20742188 187.3125 335.125 C186.35312683 333.1054067 185.39078002 331.08722384 184.42578125 329.0703125 C183.89871582 327.96461914 183.37165039 326.85892578 182.82861328 325.71972656 C180.74306934 321.42269264 178.50120065 317.21045398 176.26171875 312.9921875 C170.3635668 301.87323678 164.77101371 290.60824469 159.17724609 279.33398438 C154.55553475 270.02568359 149.90178492 260.74352809 145.03125 251.5625 C139.00990389 240.21053873 133.31722553 228.69789524 127.60449219 217.18847656 C122.42742951 206.76542046 117.18711741 196.389183 111.73303223 186.1081543 C106.35807004 175.94595894 101.28639968 165.63150323 96.17724609 155.33398438 C91.54518501 146.00483882 86.88036859 136.70215813 82 127.5 C76.1900955 116.54515941 70.68820388 105.44134115 65.17724609 94.33398438 C60.5525846 85.01974187 55.89284967 75.73551798 51.0078125 66.5546875 C47.42441154 59.81651109 44.02303323 53.00821627 40.7109375 46.1328125 C39.82322711 44.30323476 38.93520627 42.47380761 38.046875 40.64453125 C36.69531639 37.86077566 35.35106996 35.07448007 34.02636719 32.27783203 C32.71258725 29.51070091 31.37084665 26.75869285 30.0234375 24.0078125 C29.63674896 23.17452423 29.25006042 22.34123596 28.85165405 21.48269653 C25.95287742 15.65478683 22.77554388 12.9110902 17 10 C16.1853125 9.54004639 15.370625 9.08009277 14.53125 8.60620117 C13.52578125 8.07990112 13.52578125 8.07990112 12.5 7.54296875 C11.75878906 7.15302734 11.01757812 6.76308594 10.25390625 6.36132812 C9.13822266 5.7802832 9.13822266 5.7802832 8 5.1875 C7.22527344 4.78080078 6.45054687 4.37410156 5.65234375 3.95507812 C3.76968874 2.96726531 1.88505402 1.98322704 0 1 C0 0.67 0 0.34 0 0 Z " fill="#FFFDF7" transform="translate(2417,7)"/>
<path d="M0 0 C10.28644372 -0.04704923 20.57286045 -0.08222747 30.85939121 -0.10362434 C35.63961745 -0.11391132 40.41976831 -0.12778121 45.19995117 -0.15087891 C73.63775953 -0.28447124 101.9366987 0.06425775 130.1875 3.75 C131.49299805 3.91773926 132.79849609 4.08547852 134.14355469 4.25830078 C176.95889129 9.95421253 225.83660481 22.2450555 253.83203125 57.87109375 C267.13834445 77.07534037 271.01682697 99.55277505 267.375 122.5625 C263.82462114 140.46365946 253.41596422 155.15887372 238.8125 165.75 C211.23243333 183.76680095 179.0084155 189.54039108 146.57202148 190.65917969 C141.63888497 190.83396345 136.87127699 191.19256916 132 192 C132.59723877 192.09498779 133.19447754 192.18997559 133.80981445 192.2878418 C171.74643458 198.39963116 205.98228177 209.98013875 235 236 C235.85980469 236.73863281 236.71960937 237.47726563 237.60546875 238.23828125 C247.25185885 246.62711334 255.59446813 256.15765702 263.58203125 266.109375 C266.98056943 270.17224779 270.58638137 274.02659545 274.22045898 277.87866211 C276.90952325 280.73179068 279.53574475 283.61216733 282.08203125 286.59375 C286.91017501 292.14025657 292.10575758 297.32876971 297.29467773 302.53491211 C299.04168475 304.29156977 300.77767029 306.05864693 302.51367188 307.82617188 C324.72612949 330.24757205 349.87716702 346.47371574 381 353 C381 353.33 381 353.66 381 354 C358.01371816 355.11423628 334.91100396 349.08391078 314.84082031 338.01464844 C313.05832658 337.03214924 311.26188701 336.08094469 309.4609375 335.1328125 C285.239823 321.95608881 264.83838781 302.03623678 245.51635742 282.64672852 C243.67545292 280.80041754 241.82919728 278.95957727 239.98242188 277.11914062 C234.65049116 271.78971794 229.40857408 266.46051621 224.51538086 260.7199707 C221.83998666 257.68337458 218.90506454 254.93484816 215.9375 252.1875 C215.29047119 251.58711914 214.64344238 250.98673828 213.97680664 250.36816406 C207.60406815 244.52616428 200.93054102 239.16170729 194 234 C193.14390137 233.35853027 193.14390137 233.35853027 192.27050781 232.70410156 C157.96810443 207.14658613 119.173349 193.18028991 76.375 191.4375 C75.37082031 191.39431641 74.36664062 191.35113281 73.33203125 191.30664062 C70.88811617 191.20190141 68.44412383 191.09972744 66 191 C65.67 189.68 65.34 188.36 65 187 C66.39583565 186.98786972 66.39583565 186.98786972 67.81987 186.97549438 C76.68727255 186.89724274 85.55453636 186.80932188 94.42175579 186.71247292 C98.97799972 186.66300522 103.5342258 186.6166812 108.09057617 186.578125 C169.14634112 186.73072047 169.14634112 186.73072047 221.625 158.5625 C222.40875 157.716875 223.1925 156.87125 224 156 C224.53109375 155.4740625 225.0621875 154.948125 225.609375 154.40625 C236.60748719 142.92149568 242.34361195 125.72477467 243 110 C243.03996094 109.17628906 243.07992187 108.35257812 243.12109375 107.50390625 C243.65376394 85.91509691 237.00132144 65.89431882 222.11425781 50.15649414 C220.75597671 48.75811361 219.37847663 47.37847663 218 46 C217.33097656 45.33097656 216.66195312 44.66195312 215.97265625 43.97265625 C173.52600782 4.39766268 97.82743863 5.39019575 45 4 C45 112.9 45 221.8 45 334 C46.98 334.66 48.96 335.32 51 336 C53.71664386 337.3483319 56.28259401 338.92747466 58.875 340.5 C59.56335937 340.90347656 60.25171875 341.30695313 60.9609375 341.72265625 C62.67818898 342.75505148 64.34458175 343.87111428 66 345 C66 345.66 66 346.32 66 347 C44.22 347 22.44 347 0 347 C0 346.34 0 345.68 0 345 C1.71240234 343.76318359 1.71240234 343.76318359 4.0859375 342.3984375 C4.93414063 341.90859375 5.78234375 341.41875 6.65625 340.9140625 C7.5534375 340.40617187 8.450625 339.89828125 9.375 339.375 C10.26445312 338.859375 11.15390625 338.34375 12.0703125 337.8125 C18.72705853 334 18.72705853 334 21 334 C21.30745728 293.29390682 21.51475642 252.58842797 21.58805899 211.88120986 C21.59680195 207.07355569 21.60637266 202.2659035 21.61645508 197.45825195 C21.61844836 196.50115003 21.62044164 195.5440481 21.62249533 194.55794308 C21.6567287 179.06779862 21.75798848 163.57878259 21.88409772 148.08914479 C22.01203946 132.19081137 22.06777023 116.29340233 22.05671436 100.39455205 C22.05216246 90.58605985 22.10367233 80.78117228 22.22731743 70.97344462 C22.30675017 64.24434644 22.31592393 57.5174152 22.27035638 50.78801217 C22.24612852 46.9058248 22.25238157 43.03013158 22.34227943 39.14876747 C23.35024009 24.0199239 23.35024009 24.0199239 18.04409051 10.67616487 C13.43762129 6.94329881 8.43410081 4.59157145 2.82197982 2.74938661 C1 2 1 2 0 0 Z " fill="#FFFDF7" transform="translate(3339,7)"/>
<path d="M0 0 C0.83258835 -0.00979385 1.6651767 -0.01958771 2.522995 -0.02967834 C20.67659132 -0.19929078 38.25925573 -0.12127826 55.99609375 4.23828125 C56.89618164 4.45258789 57.79626953 4.66689453 58.72363281 4.88769531 C71.4425937 7.99175433 83.26397366 12.4577162 94.99609375 18.23828125 C95.65834961 18.56054688 96.32060547 18.8828125 97.00292969 19.21484375 C138.1597872 39.45389812 168.09241017 76.82065516 183.11621094 119.64550781 C199.03155774 166.54367182 196.53991077 220.68228565 175.11083984 265.48803711 C168.72638798 278.3908033 161.5466129 290.41325607 151.99609375 301.23828125 C151.24199219 302.10195313 150.48789063 302.965625 149.7109375 303.85546875 C147.50349629 306.34688611 145.26244504 308.8004223 142.99609375 311.23828125 C142.37347656 311.91503906 141.75085937 312.59179688 141.109375 313.2890625 C110.6960742 345.10507319 63.87488313 360.34289681 20.796875 361.45703125 C-27.71359109 362.25090449 -75.32832437 349.23716108 -111.171875 315.01171875 C-112.57373047 313.63886719 -112.57373047 313.63886719 -114.00390625 312.23828125 C-115.02026674 311.27153939 -116.03720468 310.3054043 -117.0546875 309.33984375 C-151.16577708 276.58065214 -168.24235542 229.26043591 -169.23828125 182.55566406 C-169.58198535 134.32968287 -154.47950059 87.54667786 -121.00390625 52.23828125 C-120.11058594 51.28050781 -119.21726562 50.32273438 -118.296875 49.3359375 C-88.53058421 18.0560207 -42.83511826 0.41928297 0 0 Z M-110.10742188 53.07128906 C-115.0412 58.70880382 -119.15595377 64.8239415 -123.00390625 71.23828125 C-123.37306152 71.84849121 -123.7422168 72.45870117 -124.12255859 73.08740234 C-149.46893836 115.75132671 -149.10734146 169.16339614 -137.31591797 215.96923828 C-134.00122969 228.5228881 -129.40436836 240.4436927 -124.00390625 252.23828125 C-123.52848389 253.28193848 -123.52848389 253.28193848 -123.04345703 254.34667969 C-103.6376598 296.37748364 -68.90380198 331.92328917 -25.328125 348.41015625 C10.13657129 361.09071296 51.44793012 359.62633263 85.76904297 343.97363281 C100.54903165 336.87698372 113.07691607 328.53206998 124.99609375 317.23828125 C125.89328125 316.40554688 126.79046875 315.5728125 127.71484375 314.71484375 C151.35960203 292.06635338 163.25246095 261.11630226 167.99609375 229.23828125 C168.09921875 228.56490723 168.20234375 227.8915332 168.30859375 227.19775391 C175.37635408 173.92451042 159.50923311 114.9939196 126.99609375 72.36328125 C120.50166371 64.18050655 113.39203602 56.6100932 105.99609375 49.23828125 C105.40828125 48.61566406 104.82046875 47.99304687 104.21484375 47.3515625 C94.28774305 36.95066836 82.48095387 29.20386899 69.99609375 22.23828125 C68.89910156 21.62082031 67.80210937 21.00335937 66.671875 20.3671875 C48.32124771 10.61638081 27.73342208 5.15484825 6.99609375 4.23828125 C6.1040625 4.19703125 5.21203125 4.15578125 4.29296875 4.11328125 C-39.97276886 3.12410276 -80.27847422 20.66790475 -110.10742188 53.07128906 Z " fill="#FFFDF7" transform="translate(2229.00390625,-0.23828125)"/>
<path d="M0 0 C0.85256378 -0.0061734 1.70512756 -0.0123468 2.58352661 -0.01870728 C42.0770872 -0.20264142 80.90294243 12.03394486 112.1875 36.4375 C113.11304688 37.14132813 114.03859375 37.84515625 114.9921875 38.5703125 C152.77164699 68.24635169 173.92162696 111.95243785 180.53564453 158.90917969 C185.93273769 206.19891547 174.90342906 256.13277214 146.1875 294.4375 C145.52621094 295.32308594 144.86492187 296.20867187 144.18359375 297.12109375 C129.35341265 316.05982597 111.46499123 330.43318926 90.1875 341.4375 C89.58502441 341.75170898 88.98254883 342.06591797 88.36181641 342.38964844 C71.33656372 351.14282362 53.03658806 356.42180318 34.1875 359.4375 C33.4872168 359.55464355 32.78693359 359.67178711 32.06542969 359.79248047 C-14.15151764 367.23007147 -65.72432784 357.82468715 -104.1875 330.5 C-144.83539778 300.64435599 -170.63984612 258.30173279 -178.8125 208.4375 C-179.60008055 202.536967 -179.9802786 196.71576388 -180.015625 190.765625 C-180.02263931 189.96927139 -180.02965363 189.17291779 -180.03688049 188.35243225 C-180.05427903 185.79739655 -180.06073256 183.24259276 -180.0625 180.6875 C-180.06317474 179.81378754 -180.06384949 178.94007507 -180.06454468 178.03988647 C-180.0484794 164.9517874 -179.60922316 152.26968442 -176.8125 139.4375 C-176.64089355 138.61910645 -176.46928711 137.80071289 -176.29248047 136.95751953 C-169.06991083 103.28446698 -153.6530118 74.21073918 -129.8125 49.4375 C-129.18472656 48.7465625 -128.55695313 48.055625 -127.91015625 47.34375 C-110.88481897 29.16352113 -87.16442968 17.11972523 -63.8125 9.4375 C-63.06468262 9.18919434 -62.31686523 8.94088867 -61.54638672 8.68505859 C-56.35752491 7.00435655 -51.13067948 5.64292554 -45.8125 4.4375 C-44.96993652 4.24140137 -44.12737305 4.04530273 -43.25927734 3.84326172 C-28.86987546 0.64300013 -14.68017104 0.04486187 0 0 Z M-118.5703125 49.828125 C-139.11450476 72.32601776 -150.17458923 100.61718313 -154.8125 130.4375 C-154.915625 131.08243408 -155.01875 131.72736816 -155.125 132.3918457 C-156.23321721 140.571874 -156.05645233 148.88530135 -156.0625 157.125 C-156.06317474 157.9504129 -156.06384949 158.77582581 -156.06454468 159.62625122 C-156.04748412 172.78472371 -155.37587795 185.49950577 -152.8125 198.4375 C-152.64621094 199.31792969 -152.47992188 200.19835937 -152.30859375 201.10546875 C-145.10916228 238.48918325 -128.73502851 272.69058348 -103.8125 301.4375 C-103.11181396 302.24985107 -103.11181396 302.24985107 -102.39697266 303.07861328 C-77.74847485 331.46417024 -40.81872604 353.34945263 -2.8125 356.4375 C38.04609455 358.5193513 76.66201972 349.50278371 108.1875 322.4375 C109.54488281 321.28121094 109.54488281 321.28121094 110.9296875 320.1015625 C138.79694962 295.63086419 153.66495884 259.90398489 157.1875 223.4375 C157.33645318 220.50609806 157.37378545 217.57939052 157.390625 214.64453125 C157.40121445 213.41485626 157.40121445 213.41485626 157.41201782 212.16033936 C157.63328425 187.1478135 157.63328425 187.1478135 154.1875 162.4375 C153.99414062 161.48520508 153.80078125 160.53291016 153.6015625 159.55175781 C142.73097899 106.7254191 114.08147004 59.10598212 69.07617188 28.67382812 C10.32431028 -9.78524983 -70.0782045 -1.41866307 -118.5703125 49.828125 Z " fill="#FFFDF7" transform="translate(507.8125,-0.4375)"/>
<path d="M0 0 C1.37673386 0.00648056 1.37673386 0.00648056 2.78128052 0.01309204 C27.11450756 0.14722573 61.13598938 0.77545208 80.1875 18.375 C83.61095252 22.16919508 83.69636245 25.00511402 83.54296875 29.96484375 C83.03561728 33.40479826 81.76016081 35.08819039 79.1875 37.375 C74.81156498 39.91557384 71.14459872 40.06616969 66.1875 39.375 C56.17520923 36.58515377 48.3400939 30.52676599 40.1875 24.375 C26.39793503 13.99204558 13.0894416 5.9498094 -4.6875 6.0625 C-5.60007568 6.06668945 -6.51265137 6.07087891 -7.45288086 6.07519531 C-28.28570115 6.4146744 -49.06956637 11.29486823 -64.5859375 25.94921875 C-73.57191792 35.73920795 -77.69461384 48.4961402 -77.8515625 61.6484375 C-77.08010477 77.11432811 -70.06350773 90.8106735 -58.8125 101.375 C-45.6350618 112.54416811 -30.36771961 120.41091501 -14.74609375 127.5625 C-13.70735107 128.0380835 -12.6686084 128.51366699 -11.59838867 129.00366211 C-0.30378891 134.12699447 11.17480771 138.76845953 22.6875 143.375 C89.97529012 170.29867003 89.97529012 170.29867003 117.1875 193.375 C117.94417969 193.99761719 118.70085938 194.62023437 119.48046875 195.26171875 C137.50101791 210.55282156 150.01754131 232.71703765 152.1875 256.375 C153.73140763 279.43738179 149.87213359 301.0996272 134.3671875 319.078125 C103.56695762 351.53428122 55.12351415 360.45714111 12.1466217 361.60806274 C-34.09709623 362.5892383 -85.40728864 358.60417998 -122.8125 328.375 C-123.78703125 327.59511719 -124.7615625 326.81523437 -125.765625 326.01171875 C-141.26646299 312.78404834 -151.00653016 294.55829186 -153.8125 274.375 C-155.36750573 248.75564328 -147.1659567 227.17191979 -130.43798828 207.78173828 C-116.58594067 192.38682425 -97.69648677 179.39917396 -77.8125 173.375 C-77.8125 174.035 -77.8125 174.695 -77.8125 175.375 C-79.50288702 176.41968964 -81.24355545 177.38315224 -83 178.3125 C-104.6688443 190.70198039 -117.46568729 209.61361834 -124.76953125 233.1953125 C-130.06831939 253.16215456 -130.54821474 276.71815926 -123.8125 296.375 C-123.43867188 297.47457031 -123.06484375 298.57414062 -122.6796875 299.70703125 C-120.0336166 306.67268146 -116.43147956 312.54984967 -111.8125 318.375 C-111.15507812 319.20902344 -110.49765625 320.04304688 -109.8203125 320.90234375 C-89.84938519 344.64068043 -56.37069177 352.79370658 -26.83203125 355.96484375 C-18.59370633 356.64635085 -10.32375482 356.61920449 -2.0625 356.625 C-0.76375946 356.62601212 -0.76375946 356.62601212 0.56121826 356.62704468 C14.29535076 356.61007878 27.6767681 356.04665745 41.1875 353.375 C42.08549316 353.19807617 42.98348633 353.02115234 43.90869141 352.83886719 C70.95375988 347.31245298 98.98982211 336.69459711 114.8125 312.75 C125.74797159 295.57452649 129.438409 274.75194407 125.97265625 254.71484375 C120.22438231 230.26323071 102.16229871 212.58889647 81.41308594 199.72265625 C58.11395147 185.61436069 32.98786146 175.31050831 7.88668823 164.92285156 C-82.31818907 127.57767014 -82.31818907 127.57767014 -98.8125 93.375 C-101.25866631 86.90377822 -103.27997104 80.29787653 -103.8125 73.375 C-103.8640625 72.73949219 -103.915625 72.10398437 -103.96875 71.44921875 C-104.62768431 56.43100766 -98.64546655 40.92105491 -89.0625 29.4375 C-65.49252705 5.41074463 -32.2877903 -0.28951242 0 0 Z " fill="#FFFDF7" transform="translate(3851.8125,-0.375)"/>
<path d="M0 0 C29.3534355 -1.49332636 53.83450482 -0.24943176 81.05059814 11.19293213 C84.12398794 12.46533995 87.2314899 13.63974211 90.33984375 14.82421875 C126.12562015 28.65853751 160.14029869 47.19474052 191 70 C191.63502441 70.46374023 192.27004883 70.92748047 192.92431641 71.40527344 C202.66448055 78.51970414 211.99913196 85.96983974 221 94 C221.53157715 94.47373047 222.0631543 94.94746094 222.61083984 95.43554688 C235.61477406 107.09231668 248.24453823 119.21537075 259 133 C259.92518039 134.11594618 260.85378463 135.22905955 261.78515625 136.33984375 C269.81253376 145.9902501 276.60403831 156.20681466 283 167 C283.38671875 167.64936523 283.7734375 168.29873047 284.171875 168.96777344 C301.85638864 199.09872466 309.96258213 234.82817755 301.47998047 269.10107422 C297.72281645 282.77661402 291.19936697 294.30348116 282 305 C281.22785156 305.97324219 280.45570313 306.94648438 279.66015625 307.94921875 C276.95003134 311.19735288 273.89858263 313.78972402 270.5625 316.375 C269.64887695 317.08499146 269.64887695 317.08499146 268.71679688 317.80932617 C235.45370879 343.0942301 192.91756192 347.2110913 152.46459961 347.11352539 C150.78723655 347.11324238 149.10987337 347.11340348 147.43251038 347.1139679 C142.93778146 347.11425142 138.44307996 347.10842756 133.94835734 347.10139394 C129.2292093 347.09508542 124.51006042 347.09455073 119.79090881 347.09336853 C110.88081162 347.09027711 101.97072689 347.08209362 93.06063515 347.07201904 C82.90565954 347.06078942 72.75068329 347.0553303 62.59570301 347.05032361 C41.73046175 347.03990886 20.86523166 347.02235239 0 347 C0 346.34 0 345.68 0 345 C1.71240234 343.76318359 1.71240234 343.76318359 4.0859375 342.3984375 C4.93414063 341.90859375 5.78234375 341.41875 6.65625 340.9140625 C7.5534375 340.40617187 8.450625 339.89828125 9.375 339.375 C10.26445312 338.859375 11.15390625 338.34375 12.0703125 337.8125 C18.72705853 334 18.72705853 334 21 334 C21.30745728 293.29390682 21.51475642 252.58842797 21.58805899 211.88120986 C21.59680195 207.07355569 21.60637266 202.2659035 21.61645508 197.45825195 C21.61844836 196.50115003 21.62044164 195.5440481 21.62249533 194.55794308 C21.6567287 179.06779862 21.75798848 163.57878259 21.88409772 148.08914479 C22.01203946 132.19081137 22.06777023 116.29340233 22.05671436 100.39455205 C22.05216246 90.58605985 22.10367233 80.78117228 22.22731743 70.97344462 C22.30675017 64.24434644 22.31592393 57.5174152 22.27035638 50.78801217 C22.24612852 46.9058248 22.25238157 43.03013158 22.34227943 39.14876747 C23.35024009 24.0199239 23.35024009 24.0199239 18.04409051 10.67616487 C13.43762129 6.94329881 8.43410081 4.59157145 2.82197982 2.74938661 C1 2 1 2 0 0 Z M45 4 C45 115.54 45 227.08 45 342 C117.49404706 345.83887951 117.49404706 345.83887951 200.4375 337.875 C201.30165527 337.66472168 202.16581055 337.45444336 203.05615234 337.23779297 C228.87289331 330.58738546 252.59751587 315.86262578 266.75 292.8125 C283.93353611 263.54002526 283.02486559 228.79476462 275.05029297 196.67822266 C263.92085234 154.39224075 237.29405838 116.04456906 204 88 C203.42121094 87.5035498 202.84242188 87.00709961 202.24609375 86.49560547 C166.32382027 55.73489098 95.05425284 4 45 4 Z " fill="#FFFDF7" transform="translate(0,7)"/>
<path d="M0 0 C21.78 0 43.56 0 66 0 C61.5 6.75 61.5 6.75 58.75 9.875 C58.22921875 10.47054688 57.7084375 11.06609375 57.171875 11.6796875 C56.78515625 12.11539062 56.3984375 12.55109375 56 13 C65.97455369 23.89739626 75.97372227 34.77065242 86.0625 45.5625 C91.17108466 51.02748136 96.24500697 56.52199152 101.29296875 62.04296875 C105.67487879 66.834433 110.08619455 71.59882411 114.49267578 76.36767578 C115.97410134 77.97195361 117.45408992 79.57754366 118.93359375 81.18359375 C124.28952001 86.99579858 129.66477464 92.78907652 135.0625 98.5625 C140.17110874 104.02745856 145.24500725 109.52199183 150.29296875 115.04296875 C154.67487879 119.834433 159.08619455 124.59882411 163.49267578 129.36767578 C164.97410134 130.97195361 166.45408992 132.57754366 167.93359375 134.18359375 C173.45922912 140.18025786 179.00179801 146.1608265 184.5625 152.125 C185.15853027 152.7648584 185.75456055 153.4047168 186.36865234 154.06396484 C186.92891113 154.66418457 187.48916992 155.2644043 188.06640625 155.8828125 C188.56084229 156.41277832 189.05527832 156.94274414 189.56469727 157.48876953 C191.01804584 159.01900047 192.50125473 160.51431629 194 162 C194.48726562 161.45214844 194.97453125 160.90429688 195.4765625 160.33984375 C200.80717361 154.37925132 206.23302749 148.51634246 211.69702148 142.67822266 C217.1736678 136.82359712 222.59296224 130.91894666 228 125 C236.14830454 116.09481376 244.328744 107.2196958 252.52050781 98.35449219 C257.85697495 92.57875316 263.18935718 86.79950458 268.5 81 C273.81204208 75.19896736 279.14594334 69.41830883 284.48388672 63.64111328 C286.99014104 60.92822415 289.49502145 58.21406708 292 55.5 C295.01102872 52.23764315 298.02235526 48.97556408 301.03515625 45.71484375 C309.72688825 36.3108749 309.72688825 36.3108749 318.37109375 26.86328125 C320.1329197 24.94438315 321.91723998 23.0459125 323.72265625 21.16796875 C324.55667969 20.28753906 325.39070313 19.40710938 326.25 18.5 C326.99765625 17.7265625 327.7453125 16.953125 328.515625 16.15625 C330.19375675 14.15850301 330.19375675 14.15850301 329.98828125 11.9765625 C328.7018874 9.40377481 327.04286878 7.82812871 324.9375 5.875 C323.59001493 4.61987331 322.26847218 3.33492972 321 2 C321 1.34 321 0.68 321 0 C333.21 0 345.42 0 358 0 C354.94248483 3.05751517 353.49726769 4.49277768 349.91796875 6.296875 C349.15033203 6.6990625 348.38269531 7.10125 347.59179688 7.515625 C346.00453685 8.33053023 344.41343048 9.13799198 342.81835938 9.9375 C336.8616503 13.08256277 333.21033611 16.81036007 329 22 C327.81942752 23.29760427 326.62661147 24.58417374 325.421875 25.859375 C324.52529175 26.81106567 324.52529175 26.81106567 323.6105957 27.78198242 C322.99659912 28.43142822 322.38260254 29.08087402 321.75 29.75 C316.34763096 35.48814337 310.98740086 41.25935409 305.671875 47.078125 C302.81122345 50.20643985 299.9389025 53.3236772 297.0625 56.4375 C296.56339111 56.97785889 296.06428223 57.51821777 295.55004883 58.07495117 C294.53879388 59.16964892 293.52748188 60.26429396 292.51611328 61.35888672 C290.00985896 64.07177585 287.50497855 66.78593292 285 69.5 C281.98897128 72.76235685 278.97764474 76.02443592 275.96484375 79.28515625 C271.13369408 84.51475125 266.3081505 89.74924378 261.5 95 C256.18795792 100.80103264 250.85405666 106.58169117 245.51611328 112.35888672 C243.00985896 115.07177586 240.50499554 117.78594859 238 120.5 C237.00000676 121.58333957 236.00000676 122.66667291 235 123.75 C234.505 124.28625 234.01 124.8225 233.5 125.375 C229 130.25 229 130.25 227.49975586 131.87524414 C226.50054262 132.95773871 225.50135638 134.04025821 224.50219727 135.12280273 C221.99038165 137.84417508 219.47808667 140.56510195 216.96484375 143.28515625 C210.29262036 150.50767717 203.63891712 157.74685236 197 165 C201.10800509 169.85378514 205.32812208 174.559251 209.6875 179.1875 C210.92880844 180.51132222 212.16968906 181.83554571 213.41015625 183.16015625 C214.01875488 183.81000488 214.62735352 184.45985352 215.25439453 185.12939453 C218.62678509 188.74327655 221.95753117 192.3949865 225.29296875 196.04296875 C229.67487879 200.834433 234.08619455 205.59882411 238.49267578 210.36767578 C239.97410134 211.97195361 241.45408992 213.57754366 242.93359375 215.18359375 C248.28952001 220.99579858 253.66477464 226.78907652 259.0625 232.5625 C264.17110874 238.02745856 269.24500725 243.52199183 274.29296875 249.04296875 C277.16490659 252.18333159 280.05006534 255.31138814 282.9375 258.4375 C283.43652832 258.97777832 283.93555664 259.51805664 284.44970703 260.07470703 C285.46104672 261.16948306 286.47244008 262.2642095 287.48388672 263.35888672 C289.99014104 266.07177586 292.49500446 268.78594859 295 271.5 C295.99999324 272.58333957 296.99999324 273.66667291 298 274.75 C328 307.25 328 307.25 329.50146484 308.87695312 C330.49609493 309.95422598 331.491208 311.03105311 332.48681641 312.10742188 C335.07322718 314.90491632 337.64941189 317.71093747 340.2109375 320.53125 C340.74074219 321.11197266 341.27054688 321.69269531 341.81640625 322.29101562 C342.81958363 323.39099082 343.81982862 324.49365127 344.81640625 325.59960938 C351.16229634 332.54098215 358.09881387 336.96214607 366.25 341.51367188 C366.98992187 341.93583984 367.72984375 342.35800781 368.4921875 342.79296875 C369.16620605 343.1696167 369.84022461 343.54626465 370.53466797 343.93432617 C371.01822754 344.28599854 371.50178711 344.6376709 372 345 C372 345.66 372 346.32 372 347 C350.55 347 329.1 347 307 347 C308.75130704 342.62173239 309.4370031 341.19838597 312.625 338.1875 C313.25664063 337.58292969 313.88828125 336.97835938 314.5390625 336.35546875 C315.02117187 335.90816406 315.50328125 335.46085937 316 335 C314.36009487 330.96331044 311.51611267 328.10945656 308.5625 325 C307.46979689 323.83357234 306.37735446 322.66690044 305.28515625 321.5 C304.45781982 320.62021484 304.45781982 320.62021484 303.61376953 319.72265625 C301.22068575 317.16810267 298.86093605 314.58431428 296.5 312 C290.68600663 305.64879867 284.84357574 299.32397246 279 293 C272.70153025 286.18373698 266.40974739 279.36170543 260.14208984 272.51708984 C254.77851948 266.66225866 249.38869549 260.83169679 244 255 C237.70153025 248.18373698 231.40974739 241.36170543 225.14208984 234.51708984 C220.28158878 229.21140514 215.39919088 223.92601276 210.51611328 218.64111328 C209.00905183 217.00979813 207.5024697 215.37804191 205.99609375 213.74609375 C205.50109375 213.20984375 205.00609375 212.67359375 204.49609375 212.12109375 C203.50244149 211.04442094 202.50895066 209.96759913 201.515625 208.890625 C198.9328267 206.09089875 196.34632531 203.29472869 193.75390625 200.50390625 C193.21958984 199.92769531 192.68527344 199.35148438 192.13476562 198.7578125 C191.12296916 197.66683197 190.11003824 196.57690189 189.09570312 195.48828125 C185.94225114 192.08483376 182.94463853 188.58593912 180 185 C173.90820899 189.87343281 168.79398981 195.48518465 163.58154297 201.26123047 C160.75319466 204.3707545 157.87396083 207.43269358 155 210.5 C149.86951418 215.98488752 144.77489354 221.50022624 139.70703125 227.04296875 C135.32512121 231.834433 130.91380545 236.59882411 126.50732422 241.36767578 C125.02589866 242.97195361 123.54591008 244.57754366 122.06640625 246.18359375 C116.71047999 251.99579858 111.33522536 257.78907652 105.9375 263.5625 C100.8263798 269.03014521 95.75034808 274.52772159 90.69921875 280.05078125 C83.48902732 287.92877622 76.23045485 295.76110385 68.9375 303.5625 C59.85442879 313.28158495 50.87744332 323.09233486 42 333 C43.51037924 336.47387226 45.5657453 338.91268083 48.125 341.6875 C52 345.90035587 52 345.90035587 52 347 C39.79 347 27.58 347 15 347 C15 346.34 15 345.68 15 345 C15.59949463 344.67837891 16.19898926 344.35675781 16.81665039 344.02539062 C19.5745953 342.53348795 22.31831408 341.01705162 25.0625 339.5 C26.47692383 338.74203125 26.47692383 338.74203125 27.91992188 337.96875 C34.28701611 334.41915043 38.48159553 330.65801707 43 325 C44.1796964 323.70159921 45.37260827 322.41508866 46.578125 321.140625 C47.17592773 320.50608398 47.77373047 319.87154297 48.38964844 319.21777344 C49.00356445 318.5684082 49.61748047 317.91904297 50.25 317.25 C56.55708081 310.5504786 62.79812306 303.79695958 69 297 C70.81190208 295.02028065 72.62421515 293.04095151 74.4375 291.0625 C74.88971924 290.56903076 75.34193848 290.07556152 75.80786133 289.56713867 C80.68667761 284.24628489 85.58482088 278.94331665 90.48388672 273.64111328 C92.99014104 270.92822414 95.49500446 268.21405141 98 265.5 C98.99999324 264.41666043 99.99999324 263.33332709 101 262.25 C101.495 261.71375 101.99 261.1775 102.5 260.625 C143 216.75 143 216.75 144.50024414 215.12475586 C145.49945738 214.04226129 146.49864362 212.95974179 147.49780273 211.87719727 C150.00961835 209.15582492 152.52191333 206.43489805 155.03515625 203.71484375 C161.70737964 196.49232283 168.36108288 189.25314764 175 182 C172.65441559 178.32819825 170.3476141 175.12421216 167.1875 172.125 C163.86545525 168.96049552 160.87471356 165.58932628 157.87133789 162.12744141 C154.87084742 158.7163163 151.74681491 155.42476523 148.625 152.125 C143.80607718 147.00956429 139.04287635 141.85689534 134.36328125 136.61328125 C131.32078832 133.24893783 128.22453103 129.93674819 125.125 126.625 C119.03932042 120.12264912 113.00669647 113.57537779 107 107 C105.18834256 105.02006088 103.37565154 103.04107092 101.5625 101.0625 C101.11036133 100.56911133 100.65822266 100.07572266 100.19238281 99.56738281 C94.81012711 93.69756254 89.40476435 87.84908666 84 82 C77.7022338 75.18449837 71.41077982 68.36356557 65.14428711 61.51928711 C61.7719882 57.83772489 58.38820414 54.1669253 55 50.5 C50.25570632 45.36543023 45.52783327 40.21619514 40.80859375 35.05859375 C38.80882233 32.87657189 36.79953465 30.70369933 34.78515625 28.53515625 C34.24761719 27.95572266 33.71007812 27.37628906 33.15625 26.77929688 C32.12514114 25.66858034 31.09267777 24.55911904 30.05859375 23.45117188 C27.97754209 21.20807111 25.98666026 18.9820419 24.16088867 16.52416992 C21.87206058 13.85055185 19.8435732 12.43521925 16.796875 10.703125 C15.8171875 10.13722656 14.8375 9.57132813 13.828125 8.98828125 C12.81234375 8.41464844 11.7965625 7.84101563 10.75 7.25 C8.72219786 6.09161803 6.696052 4.93033002 4.671875 3.765625 C3.7756543 3.25805664 2.87943359 2.75048828 1.95605469 2.22753906 C1.31055664 1.82245117 0.66505859 1.41736328 0 1 C0 0.67 0 0.34 0 0 Z " fill="#FFFDF7" transform="translate(680,7)"/>
<path d="M0 0 C87.12 0 174.24 0 264 0 C269.28 10.89 274.56 21.78 280 33 C280.99 34.98 281.98 36.96 283 39 C282.67 39.99 282.34 40.98 282 42 C269.71111209 34.36622066 257.61444305 26.47405537 245.60620117 18.40869141 C244.51927979 17.67956543 243.4323584 16.95043945 242.3125 16.19921875 C241.35988281 15.55815186 240.40726563 14.91708496 239.42578125 14.2565918 C238.89605115 13.91814114 238.36632105 13.57969048 237.82053852 13.23098373 C236 12 236 12 233.88077831 10.27954483 C225.38521249 3.91544657 217.44322632 4.01168802 207.31958008 4.11352539 C205.55441731 4.10562457 203.78926604 4.09465523 202.0241394 4.08087158 C197.26221571 4.05228845 192.50128164 4.06630999 187.73935914 4.08831334 C182.7518386 4.1040038 177.7645073 4.0800528 172.77702332 4.06040955 C163.34600358 4.02923587 153.91534843 4.03341851 144.48430604 4.05048412 C131.73069048 4.07150224 118.97722695 4.03753849 106.22365093 4.00674725 C86.14893023 3.95972206 66.07498674 3.98584132 46 4 C46 43.27 46 82.54 46 123 C89.56 122.67 133.12 122.34 178 122 C182.95 111.11 187.9 100.22 193 89 C193.66 88.34 194.32 87.68 195 87 C195 112.41 195 137.82 195 164 C192.29609918 160.39479891 190.46011971 156.96466891 188.64453125 152.8984375 C188.33803146 152.22076324 188.03153168 151.54308899 187.71574402 150.84487915 C187.07217756 149.41882438 186.43105267 147.99166551 185.79223633 146.56347656 C184.81143465 144.37262027 183.82134624 142.18613745 182.83007812 140 C182.20517395 138.61222904 181.58080609 137.22421643 180.95703125 135.8359375 C180.51179863 134.85311295 180.51179863 134.85311295 180.05757141 133.85043335 C178 129.23067038 178 129.23067038 178 127 C134.44 127 90.88 127 46 127 C46 198.28 46 269.56 46 343 C76.545625 343.144375 107.09125 343.28875 138.5625 343.4375 C152.97079468 343.56402954 152.97079468 343.56402954 167.67016602 343.69311523 C176.36371436 343.69666415 176.36371436 343.69666415 185.05723572 343.68031311 C188.89736128 343.6736188 192.73457424 343.70840635 196.57420349 343.76979065 C228.03137086 344.37091142 228.03137086 344.37091142 254.69512749 328.92895699 C258.68047667 325.59360238 263.0998817 322.93563458 267.5 320.1875 C269.1218237 319.13855182 270.74191087 318.08690817 272.359375 317.03125 C273.13087891 316.52851563 273.90238281 316.02578125 274.69726562 315.5078125 C280.49231487 311.71325947 286.24866095 307.86036848 292 304 C293.15591472 307.46774415 292.92098117 307.78919288 291.38525391 310.90478516 C291.00801178 311.6821402 290.63076965 312.45949524 290.24209595 313.26040649 C289.82446991 314.09486298 289.40684387 314.92931946 288.9765625 315.7890625 C288.34541031 317.07760635 288.34541031 317.07760635 287.70150757 318.3921814 C286.3518924 321.14110366 284.98838227 323.88288421 283.625 326.625 C282.71267886 328.48134705 281.80120958 330.33811301 280.890625 332.1953125 C279.22313563 335.58396439 277.55558269 338.97255174 275.87353516 342.35400391 C275.5352066 343.03556549 275.19687805 343.71712708 274.84829712 344.41934204 C274 346 274 346 273 347 C271.54042779 347.09669727 270.07618166 347.1237179 268.61341 347.12304783 C267.66045196 347.12503888 266.70749391 347.12702993 265.72565836 347.12908131 C264.66634231 347.12616847 263.60702627 347.12325563 262.51560974 347.12025452 C261.39994552 347.12110894 260.2842813 347.12196337 259.13480908 347.12284368 C255.36516605 347.12450175 251.59556672 347.11897179 247.82592773 347.11352539 C245.13615823 347.11324356 242.44639148 347.11335705 239.75662231 347.1139679 C233.94967121 347.11449333 228.1427313 347.11134455 222.335783 347.10573006 C213.93981682 347.09761761 205.54385608 347.0950001 197.1478864 347.09374207 C183.52738018 347.09155114 169.90687993 347.08488997 156.28637695 347.07543945 C143.05200226 347.06626638 129.81762918 347.05918503 116.58325195 347.05493164 C115.76806488 347.05466892 114.95287781 347.05440619 114.11298811 347.05413551 C110.0236073 347.05283051 105.93422648 347.05156679 101.84484565 347.05032361 C67.89655943 347.03994974 33.94828045 347.02233033 0 347 C0 346.34 0 345.68 0 345 C1.71240234 343.76318359 1.71240234 343.76318359 4.0859375 342.3984375 C4.93414063 341.90859375 5.78234375 341.41875 6.65625 340.9140625 C7.5534375 340.40617187 8.450625 339.89828125 9.375 339.375 C10.26445312 338.859375 11.15390625 338.34375 12.0703125 337.8125 C18.72705853 334 18.72705853 334 21 334 C21.33040217 293.31096641 21.55528336 252.62259688 21.63912432 211.93227519 C21.64911788 207.1259095 21.65998292 202.31954614 21.67138672 197.51318359 C21.67364231 196.55634398 21.67589791 195.59950436 21.67822185 194.6136696 C21.71679782 179.13059853 21.82592975 163.64879083 21.96125051 148.16629758 C22.09858172 132.27360686 22.15982816 116.38192854 22.15080285 100.48864055 C22.14762306 90.68458788 22.2034102 80.88454325 22.3352339 71.08136109 C22.42000412 64.35406883 22.43070136 57.62916582 22.38385776 50.90151355 C22.35900464 47.0209537 22.36612004 43.14759817 22.46148491 39.26797295 C23.44632246 23.99281964 23.44632246 23.99281964 17.92438602 10.55646038 C13.03897169 6.54429861 7.7147818 3.89204775 1.79844975 1.72585654 C1.20496134 1.48632388 0.61147292 1.24679122 0 1 C0 0.67 0 0.34 0 0 Z " fill="#FFFDF7" transform="translate(3022,7)"/>
<path d="M0 0 C15.18 0 30.36 0 46 0 C49.58471005 6.99929828 53.16839604 13.99911255 56.75 21 C57.27854584 22.03308289 57.80709167 23.06616577 58.35165405 24.1305542 C64.69593045 36.53454194 71.00911264 48.95085659 77.20507812 61.4296875 C80.35014136 67.74752377 83.61577663 73.99232937 86.93286133 80.22119141 C91.09140067 88.07939679 95.03959541 96.04079908 99 104 C103.23099207 112.50285741 107.4604566 120.99809301 111.9375 129.375 C117.03233681 138.91012862 121.81611664 148.59889318 126.63299561 158.27624512 C131.05035367 167.14734766 135.51211866 175.98195198 140.18359375 184.72265625 C144.6395512 193.11122045 148.83157409 201.63257933 153.06280518 210.13586426 C156.94099482 217.92628829 160.83523881 225.69934056 164.9375 233.375 C170.03233681 242.91012862 174.81611664 252.59889318 179.63299561 262.27624512 C184.04520503 271.13700796 188.49867659 279.96319188 193.16821289 288.69189453 C198.15766745 298.07870902 202.83706255 307.62653698 207.55688477 317.15087891 C207.8939444 317.82922791 208.23100403 318.5075769 208.57827759 319.20648193 C209.21261974 320.48330211 209.84528112 321.76095929 210.47592163 323.03961182 C211.30185718 324.70083281 212.15027444 326.35082105 213 328 C213.45165527 328.90145752 213.90331055 329.80291504 214.36865234 330.73168945 C216.42814103 333.59530953 218.37560425 334.5882539 221.54296875 336.11328125 C222.61611328 336.63857422 223.68925781 337.16386719 224.79492188 337.70507812 C225.91447266 338.23552734 227.03402344 338.76597656 228.1875 339.3125 C229.31865234 339.86228516 230.44980469 340.41207031 231.61523438 340.97851562 C234.40426964 342.33184497 237.19899381 343.67167143 240 345 C240 345.66 240 346.32 240 347 C216.9 347 193.8 347 170 347 C170 346.34 170 345.68 170 345 C171.46875 343.76318359 171.46875 343.76318359 173.5 342.3984375 C174.221875 341.90859375 174.94375 341.41875 175.6875 340.9140625 C176.450625 340.40617187 177.21375 339.89828125 178 339.375 C179.1446875 338.6015625 179.1446875 338.6015625 180.3125 337.8125 C182.20431952 336.53552182 184.10019898 335.26506032 186 334 C184.33062871 328.2615362 181.69030618 323.12192042 179 317.8125 C178.56816406 316.94947266 178.13632813 316.08644531 177.69140625 315.19726562 C175.47180999 310.78636823 173.21650845 306.39635308 170.89990234 302.03564453 C165.81742528 292.46685789 160.87525019 282.83642137 156.0390625 273.140625 C155.58720203 272.23476937 155.58720203 272.23476937 155.12621307 271.31061363 C152.95627135 266.95850311 150.79028609 262.60442822 148.625 258.25 C146.43581105 253.84779916 144.24518869 249.44632204 142.05121994 245.04650116 C141.18771475 243.31310442 140.32668655 241.57847444 139.46572876 239.84381104 C138.93772675 238.78450378 138.40972473 237.72519653 137.86572266 236.63378906 C137.40735016 235.71180725 136.94897766 234.78982544 136.47671509 233.83990479 C134.74492866 230.50946644 132.86239904 227.25919831 131 224 C65.33 224 -0.34 224 -68 224 C-72.95 233.9 -77.9 243.8 -83 254 C-88.03125 263.5703125 -88.03125 263.5703125 -90.390625 268.01269531 C-95.62708468 277.95095649 -100.59124927 288.03367964 -105.60742188 298.08447266 C-107.20269912 301.28081313 -108.80166093 304.47529483 -110.40161896 307.66929436 C-111.64872047 310.15988379 -112.89391548 312.65142255 -114.13853455 315.14325333 C-115.01156793 316.89030125 -115.88619782 318.63655108 -116.76086426 320.38278198 C-117.28901733 321.4422403 -117.81717041 322.50169861 -118.36132812 323.59326172 C-118.82414185 324.51968475 -119.28695557 325.44610779 -119.76379395 326.40060425 C-120.95236078 328.89982803 -122.00314423 331.41908197 -123 334 C-122.5153125 334.32274902 -122.030625 334.64549805 -121.53125 334.97802734 C-119.34936025 336.43664162 -117.1746619 337.90563385 -115 339.375 C-114.236875 339.88289063 -113.47375 340.39078125 -112.6875 340.9140625 C-111.965625 341.40390625 -111.24375 341.89375 -110.5 342.3984375 C-109.8296875 342.84880371 -109.159375 343.29916992 -108.46875 343.76318359 C-107.74171875 344.37540771 -107.74171875 344.37540771 -107 345 C-107 345.66 -107 346.32 -107 347 C-122.18 347 -137.36 347 -153 347 C-153 346.34 -153 345.68 -153 345 C-149.21135025 343.16038326 -145.41860225 341.32937928 -141.625 339.5 C-140.00464844 338.71302734 -140.00464844 338.71302734 -138.3515625 337.91015625 C-137.3203125 337.41386719 -136.2890625 336.91757812 -135.2265625 336.40625 C-134.27346191 335.94541016 -133.32036133 335.48457031 -132.33837891 335.00976562 C-130 334 -130 334 -128 334 C-127.64228516 332.77796875 -127.64228516 332.77796875 -127.27734375 331.53125 C-125.73982568 327.28074134 -123.71173693 323.46727997 -121.5625 319.5 C-117.79496833 312.44406466 -114.12716134 305.34811404 -110.5625 298.1875 C-109.87824951 296.81404419 -109.87824951 296.81404419 -109.18017578 295.4128418 C-107.78516796 292.60936082 -106.39220681 289.80487292 -105 287 C-99.37190968 275.66111124 -93.70031851 264.35893695 -87.76708984 253.17626953 C-82.67033218 243.53880064 -77.84679507 233.76481667 -73 224 C-67.37190968 212.66111124 -61.70031851 201.35893695 -55.76708984 190.17626953 C-50.67033218 180.53880064 -45.84679507 170.76481667 -41 161 C-35.37190968 149.66111124 -29.70031851 138.35893695 -23.76708984 127.17626953 C-18.67033218 117.53880064 -13.84679507 107.76481667 -9 98 C-2.92843569 85.76764615 3.22173574 73.59221677 9.61181641 61.52294922 C13.01829925 55.08502974 16.35712836 48.61361558 19.64526367 42.11450195 C20.35497377 40.71719265 21.06969757 39.32242114 21.78881836 37.92993164 C22.8537662 35.86646223 23.90307713 33.79570982 24.94921875 31.72265625 C25.43487556 30.79308861 25.43487556 30.79308861 25.93034363 29.84474182 C27.1356811 27.42246028 28.01423388 25.5171455 27.93896484 22.7824707 C26.68433625 20.40076415 25.21769871 19.31918281 23.02734375 17.7578125 C22.20943359 17.16613281 21.39152344 16.57445313 20.54882812 15.96484375 C19.68708984 15.35769531 18.82535156 14.75054687 17.9375 14.125 C16.25892401 12.91953616 14.58053681 11.71380938 12.90234375 10.5078125 C12.08491699 9.92418945 11.26749023 9.34056641 10.42529297 8.73925781 C8.0651285 7.0467058 5.71534044 5.34234829 3.37890625 3.6171875 C2.39966187 2.89571533 2.39966187 2.89571533 1.40063477 2.15966797 C0.93842529 1.77697754 0.47621582 1.39428711 0 1 C0 0.67 0 0.34 0 0 Z M31 28 C30.74943848 28.50635986 30.49887695 29.01271973 30.24072266 29.53442383 C25.75973272 38.57667539 21.25016119 47.5957482 16.5 56.5 C11.48931594 65.91129101 6.75153797 75.45629713 2 85 C-7.58411687 104.24973257 -7.58411687 104.24973257 -11.9375 112.375 C-16.99366297 121.81438339 -21.72692128 131.41556131 -26.5 141 C-36.68506146 161.45180957 -36.68506146 161.45180957 -41.0625 169.625 C-46.05385486 178.95059099 -50.7659596 188.41711763 -55.5 197.875 C-55.90598419 198.68447083 -56.31196838 199.49394165 -56.73025513 200.32794189 C-57.89542114 202.65236523 -59.0576065 204.97825259 -60.21875 207.3046875 C-60.57037704 208.00595764 -60.92200409 208.70722778 -61.2842865 209.42974854 C-63.0206871 212.91900599 -64.54929198 216.37322994 -66 220 C-1.65 220 62.7 220 129 220 C127.59808792 215.79426376 126.26941124 212.29126427 124.3125 208.39453125 C123.77753906 207.32654297 123.24257812 206.25855469 122.69140625 205.15820312 C122.13324219 204.05412109 121.57507812 202.95003906 121 201.8125 C120.47277344 200.75869141 119.94554687 199.70488281 119.40234375 198.61914062 C116.55622437 192.95717973 113.65381772 187.33155961 110.6817627 181.73503113 C106.00717076 172.92618672 101.48243876 164.0487725 97.03125 155.125 C96.72638672 154.51385031 96.42152344 153.90270061 96.10742188 153.27303123 C93.58376133 148.21169452 91.06535218 143.14774848 88.54705811 138.08374023 C86.35666585 133.67964023 84.1642854 129.27653848 81.96875 124.875 C81.6625536 124.26102419 81.35635719 123.64704838 81.04088211 123.01446724 C77.45960977 115.83953896 73.82708648 108.69767072 70.0546875 101.62109375 C65.7500698 93.54310843 61.66467102 85.36124853 57.6015625 77.16015625 C56.94643241 75.83944672 56.29126062 74.51875787 55.63604736 73.1980896 C52.94204832 67.76558985 50.24985765 62.33222803 47.56982422 56.89282227 C45.90532715 53.51528852 44.23302367 50.14172067 42.55558395 46.77059746 C41.9251316 45.4998474 41.29759562 44.22764582 40.67314529 42.95393562 C39.80596128 41.18576267 38.92786395 39.42295476 38.04931641 37.66040039 C37.30846298 36.16084557 37.30846298 36.16084557 36.55264282 34.6309967 C34.9782267 31.96310453 33.28299846 30.07709311 31 28 Z " fill="#FFFDF7" transform="translate(1211,7)"/>
<path d="M0 0 C86.79 0 173.58 0 263 0 C274.64179104 22.11940299 274.64179104 22.11940299 278.625 30.5625 C279.05683594 31.46162109 279.48867187 32.36074219 279.93359375 33.28710938 C283 39.74603175 283 39.74603175 283 42 C278.70727578 40.49955247 275.15777641 38.24540989 271.4375 35.6875 C270.09975376 34.78137665 268.76116745 33.87649266 267.421875 32.97265625 C266.35163086 32.24973389 266.35163086 32.24973389 265.25976562 31.51220703 C260.52164292 28.34151429 255.7238419 25.26141164 250.93334961 22.1706543 C250.16514893 21.673479 249.39694824 21.17630371 248.60546875 20.6640625 C247.35583847 19.90061775 247.35583847 19.90061775 246.08096313 19.12174988 C243.71267967 17.49079717 241.97457068 16.04620891 239.96116638 14.06607056 C225.18494746 0.71730098 205.4336933 3.35748029 186.82767248 3.58134365 C181.83088169 3.62865576 176.83436172 3.60725893 171.83743286 3.59356689 C162.40268575 3.57794161 152.96926919 3.62291184 143.53479016 3.69038892 C130.76671943 3.77813979 117.99871171 3.77079796 105.23039818 3.76916313 C85.15278126 3.76906736 65.07798156 3.89473129 45 4 C45 43.27 45 82.54 45 123 C88.89 123 132.78 123 178 123 C178.66 121.02 179.32 119.04 180 117 C181.7924266 112.70517191 183.69318831 108.45932644 185.59521484 104.2121582 C186.50385016 102.1788844 187.40242205 100.14134679 188.30078125 98.10351562 C188.87699422 96.81222765 189.45379615 95.52120229 190.03125 94.23046875 C190.55267578 93.05895264 191.07410156 91.88743652 191.61132812 90.68041992 C193 88 193 88 195 87 C195 112.41 195 137.82 195 164 C191.86883824 160.86883824 190.69187523 158.5456787 188.8984375 154.5390625 C188.61650543 153.91148041 188.33457336 153.28389832 188.0440979 152.63729858 C187.45087206 151.31242 186.86104646 149.98601433 186.27441406 148.65820312 C185.37948908 146.63514794 184.47188466 144.6181525 183.5625 142.6015625 C181.2404213 137.39833385 179.12524107 132.62620534 178 127 C134.11 127 90.22 127 45 127 C45 195.31 45 263.62 45 334 C46.65 334.66 48.3 335.32 50 336 C51.34347071 336.69484866 52.67372949 337.41594361 53.98828125 338.1640625 C54.69404297 338.56367188 55.39980469 338.96328125 56.12695312 339.375 C56.84818359 339.7875 57.56941406 340.2 58.3125 340.625 C59.05306641 341.04523438 59.79363281 341.46546875 60.55664062 341.8984375 C62.37269011 342.92948495 64.18656533 343.96436046 66 345 C66 345.66 66 346.32 66 347 C44.22 347 22.44 347 0 347 C0 346.34 0 345.68 0 345 C1.71240234 343.76318359 1.71240234 343.76318359 4.0859375 342.3984375 C4.93414063 341.90859375 5.78234375 341.41875 6.65625 340.9140625 C7.5534375 340.40617187 8.450625 339.89828125 9.375 339.375 C10.26445313 338.859375 11.15390625 338.34375 12.0703125 337.8125 C18.72705853 334 18.72705853 334 21 334 C21.30745728 293.29390682 21.51475642 252.58842797 21.58805899 211.88120986 C21.59680195 207.07355569 21.60637266 202.2659035 21.61645508 197.45825195 C21.61844836 196.50115003 21.62044164 195.5440481 21.62249533 194.55794308 C21.6567287 179.06779862 21.75798848 163.57878259 21.88409772 148.08914479 C22.01203946 132.19081137 22.06777023 116.29340233 22.05671436 100.39455205 C22.05216246 90.58605985 22.10367233 80.78117228 22.22731743 70.97344462 C22.30675017 64.24434644 22.31592393 57.5174152 22.27035638 50.78801217 C22.24612852 46.9058248 22.25238157 43.03013158 22.34227943 39.14876747 C23.35024009 24.0199239 23.35024009 24.0199239 18.04409051 10.67616487 C13.43762129 6.94329881 8.43410081 4.59157145 2.82197982 2.74938661 C1 2 1 2 0 0 Z " fill="#FFFDF7" transform="translate(1466,7)"/>
<path d="M0 0 C22.11 0 44.22 0 67 0 C64.18681606 2.81318394 63.55024767 3.33817993 60.05935764 4.37879753 C54.83947338 6.31374688 50.44898486 8.51029338 47 13 C43.85499157 22.07813066 44.7535717 32.47047954 44.94234145 41.97529984 C45.00366771 46.00532687 44.96630942 50.03461773 44.94119263 54.06486511 C44.91111133 61.03978848 44.94296257 68.01219801 45.01739311 74.98675919 C45.12491039 85.07019594 45.13823264 95.15204545 45.1288817 105.23597096 C45.11625353 121.59730522 45.1793504 137.95743056 45.2902832 154.31835938 C45.39785382 170.20740489 45.46962707 186.09595014 45.4934082 201.98535156 C45.49488751 202.96544587 45.49636681 203.94554018 45.49789094 204.95533432 C45.50509214 209.87238674 45.51159115 214.78943978 45.51774108 219.70649362 C45.56963534 260.47166576 45.74451344 301.23562788 46 342 C68.90684448 342.24435429 91.81265962 342.39512868 114.72080135 342.43784332 C125.36031453 342.45980767 135.99809987 342.51112439 146.63696289 342.63427734 C155.92195804 342.74168077 165.20525881 342.79122605 174.49088866 342.77444887 C179.39765222 342.76752089 184.30064724 342.78740974 189.20667839 342.87687683 C212.6700203 343.28326694 229.10083231 342.34962978 247.70326614 326.86972809 C250.87153478 324.29049983 254.21444659 322.20574267 257.69921875 320.078125 C258.71951172 319.42585938 259.73980469 318.77359375 260.79101562 318.1015625 C262.79596581 316.81990857 264.80119258 315.53868727 266.80664062 314.2578125 C267.80244141 313.62101562 268.79824219 312.98421875 269.82421875 312.328125 C270.73091309 311.74869141 271.63760742 311.16925781 272.57177734 310.57226562 C274.59830984 309.26009297 276.59424439 307.91643916 278.58203125 306.546875 C281 305 281 305 283 305 C280.63849846 313.25595813 276.86150764 320.66764931 272.99267578 328.29589844 C271.86504449 330.51963266 270.7462855 332.74766182 269.62890625 334.9765625 C268.91716989 336.39087835 268.20494824 337.80495012 267.4921875 339.21875 C267.15677948 339.88531616 266.82137146 340.55188232 266.47579956 341.23864746 C264.11728632 345.88271368 264.11728632 345.88271368 263 347 C261.5925723 347.09654482 260.18031869 347.12371865 258.7695837 347.12304783 C257.85145962 347.12503888 256.93333553 347.12702993 255.9873895 347.12908131 C254.45677966 347.12471205 254.45677966 347.12471205 252.89524841 347.12025452 C251.82041972 347.12110894 250.74559102 347.12196337 249.63819176 347.12284368 C246.00674348 347.12450167 242.37534056 347.11897192 238.74389648 347.11352539 C236.15264894 347.11324356 233.56140131 347.11340117 230.97015381 347.1139679 C225.37601177 347.11449331 219.78188135 347.11134466 214.18774223 347.10573006 C206.09946693 347.09761746 198.01119726 347.09500008 189.92291833 347.09374207 C176.80155499 347.09155117 163.68019786 347.08489005 150.55883789 347.07543945 C137.80948925 347.06626632 125.06014229 347.059185 112.31079102 347.05493164 C111.5254739 347.05466892 110.74015679 347.05440619 109.93104219 347.05413551 C105.99150209 347.05283051 102.05196199 347.05156679 98.11242187 347.05032361 C65.40827673 347.03994981 32.70413919 347.02233047 0 347 C0 346.34 0 345.68 0 345 C1.71240234 343.76318359 1.71240234 343.76318359 4.0859375 342.3984375 C4.93414063 341.90859375 5.78234375 341.41875 6.65625 340.9140625 C7.5534375 340.40617187 8.450625 339.89828125 9.375 339.375 C10.26445313 338.859375 11.15390625 338.34375 12.0703125 337.8125 C18.72705853 334 18.72705853 334 21 334 C21.33040217 293.31096641 21.55528336 252.62259688 21.63912432 211.93227519 C21.64911788 207.1259095 21.65998292 202.31954614 21.67138672 197.51318359 C21.67364231 196.55634398 21.67589791 195.59950436 21.67822185 194.6136696 C21.71679782 179.13059853 21.82592975 163.64879083 21.96125051 148.16629758 C22.09858172 132.27360686 22.15982816 116.38192854 22.15080285 100.48864055 C22.14762306 90.68458788 22.2034102 80.88454325 22.3352339 71.08136109 C22.42000412 64.35406883 22.43070136 57.62916582 22.38385776 50.90151355 C22.35900464 47.0209537 22.36612004 43.14759817 22.46148491 39.26797295 C23.44632246 23.99281964 23.44632246 23.99281964 17.92438602 10.55646038 C13.03897169 6.54429861 7.7147818 3.89204775 1.79844975 1.72585654 C1.20496134 1.48632388 0.61147292 1.24679122 0 1 C0 0.67 0 0.34 0 0 Z " fill="#FFFDF7" transform="translate(1772,7)"/>
</svg>
