<svg width="120" height="95" viewBox="0 0 120 95" fill="none" xmlns="http://www.w3.org/2000/svg">
<path d="M89.3529 34.954C89.5355 34.6172 90.4867 33.5379 91.3654 32.4963C92.1906 31.518 92.9615 29.7361 93.7782 26.1962C95.1674 20.1748 92.9764 16.7358 91.9223 13.6914C91.3353 11.9959 90.7728 10.5479 90.029 8.91307C89.7069 8.20527 89.2265 7.6387 88.6242 7.16475C87.2002 6.04424 85.4804 6.27798 82.1768 5.71518C79.8845 5.32465 78.0498 4.11358 76.9726 3.24028C75.9051 2.37477 72.9761 3.6292 71.1365 4.53131C69.199 5.4814 67.4368 7.02786 65.9473 7.99211C64.4542 8.95868 63.3253 10.2527 62.0016 11.5095C61.3882 12.0213 60.8915 12.4904 60.4934 13.0148C60.301 13.2963 60.1285 13.6092 59.7571 14.838" stroke="#331A2E" stroke-width="3.86958" stroke-linecap="round"/>
<path d="M63.2345 31.1997C63.2345 30.3703 63.3455 28.0907 63.5483 25.9188C63.9346 21.7817 61.7346 19.3644 60.4793 17.413C59.7505 16.2802 58.8912 15.2436 57.3906 13.736C54.5803 10.9126 53.44 9.85973 52.6705 8.61559C51.9324 7.42205 50.5559 6.52027 49.5759 5.47154C48.6015 4.42874 48.5786 3.31173 48.1676 2.82603C46.5586 0.924274 42.0446 2.56302 40.7868 3.17944C39.2709 3.92236 37.8232 4.8529 36.8111 5.76404C35.5757 6.87615 34.8783 8.64617 34.0856 9.90356C33.1207 11.4344 33.4742 14.9611 33.9148 18.1691C34.0546 18.7078 34.1792 19.1099 34.3912 19.3906C34.6032 19.6713 34.8988 19.8185 35.2398 19.9336" stroke="#331A2E" stroke-width="3.86958" stroke-linecap="round"/>
<path d="M33.9816 8.38235C33.4197 8.34375 32.0945 8.0788 30.3889 7.57531C28.5656 7.03705 27.1258 6.57124 22.7205 6.19175C18.2926 5.81032 16.2655 7.25372 14.9641 8.13666C13.4454 9.16702 13.0915 10.7454 12.7821 12.3639C12.2051 15.3819 13.343 16.8368 13.8544 18.5469C14.4743 20.6198 12.9952 22.0351 12.4504 23.5326C12.6288 25.9157 13.3601 26.6632 13.7984 27.1127C14.0052 27.3504 14.1801 27.6073 14.4371 28.1767" stroke="#331A2E" stroke-width="3.86958" stroke-linecap="round"/>
<path d="M18.8083 39.8845C18.4896 39.6396 17.4712 38.7187 16.3121 37.5173C15.2474 36.4139 14.5046 35.0714 13.6332 34.0123C12.5942 32.7495 11.6973 31.166 10.9014 29.2517C10.3308 27.8789 10.4176 26.4317 9.98762 24.9964C9.43764 23.1607 8.04378 22.2298 6.88935 21.6534C6.32755 21.3729 5.65267 21.5328 5.13042 21.8363C4.00078 22.4929 4.55937 25.4776 3.96001 27.8076C3.57648 29.2985 2.41817 30.2738 2.00681 31.5564C1.59325 32.8459 3.09336 34.1456 3.58698 35.3308C4.44811 37.3984 3.69363 40.8697 3.47449 42.688C3.04784 46.228 4.31202 47.3287 4.78394 48.5756C5.31557 49.9802 5.38372 51.4885 5.77445 53.0268C6.24276 54.8704 7.36973 56.1712 8.33852 57.2166C9.8597 58.8581 11.3613 60.2578 13.1213 61.5527C14.4323 62.5172 16.2033 64.6058 18.1024 65.7406C19.5131 66.5836 21.2863 67.5833 22.5828 68.9896C24.5191 71.0901 25.5211 72.4544 26.3762 74.5251C26.5732 75.0022 26.7407 75.2959 26.9741 75.5077C27.5076 75.838 28.2324 76.0523 29.0184 76.2381C29.3886 76.3318 29.7006 76.4243 30.6691 76.706" stroke="#331A2E" stroke-width="3.86958" stroke-linecap="round"/>
<path d="M43.5045 82.535C42.6879 82.7658 40.4511 83.4588 38.3358 83.5585C36.6504 83.6379 35.3577 82.3365 34.2925 81.0628C32.9542 79.4626 32.5314 78.0978 32.0015 76.7758C31.3625 75.1813 30.7855 73.082 30.3679 70.6643C29.9301 68.1291 30.4214 64.9887 31.0034 63.6916C31.7831 62.52 32.726 61.5033 33.8521 60.7794C34.1562 60.6045 34.4839 60.4143 35.6051 59.8857" stroke="#331A2E" stroke-width="3.86958" stroke-linecap="round"/>
<path d="M29.537 61.0051C29.096 60.7735 27.8375 59.7886 26.9801 58.6234C25.9072 57.1653 25.8202 55.7866 24.797 54.9936C23.7592 54.1893 22.3604 53.7864 21.0596 53.1008C20.1496 52.6211 19.4291 51.9365 18.9402 51.3253C17.9317 50.0646 18.0944 47.9907 18.079 44.5283C18.0678 42.005 18.5792 40.1895 19.0007 38.1899C19.3946 36.3211 19.5066 34.6414 19.8485 32.9664C20.1901 31.2929 21.1434 29.2985 21.853 27.644C22.6698 25.7399 23.8618 24.6116 25.2268 22.7967C26.095 21.6424 26.9934 20.9314 27.612 20.5962C28.8417 19.93 33.4072 20.197 37.4222 20.6176C39.1468 20.7983 40.2098 21.9798 41.5014 22.8252C43.2287 23.9558 44.5734 25.0369 45.4546 26.2364C46.3139 27.406 47.0965 28.5338 48.2097 29.5073C49.1922 30.3664 49.0791 32.3154 49.5748 33.946C50.2645 36.2147 51.7786 36.9394 52.2493 39.1495C53.3731 44.4263 51.6013 45.6766 51.0123 47.1084C50.8819 47.574 50.7754 48.1566 50.7179 48.7899C50.6604 49.4232 50.6551 50.0895 50.3013 50.0254" stroke="#331A2E" stroke-width="3.86958" stroke-linecap="round"/>
<path d="M35.5772 57.2364C35.5531 57.2364 35.1771 57.2364 34.4877 57.1624C32.9779 57.0004 32.4687 53.9369 31.8792 50.4201C31.2029 46.3849 32.4045 44.5592 32.7554 42.892C32.9532 42.0356 33.2468 41.1443 33.6089 40.3317C33.7899 39.9659 33.9657 39.6945 33.9664 39.293" stroke="#331A2E" stroke-width="3.86958" stroke-linecap="round"/>
<path d="M58.763 89.7566C58.4192 89.6911 56.8337 89.0795 55.2568 88.3188C53.9499 87.6883 52.6358 87.2727 51.3997 86.5346C50.0944 85.7553 48.254 85.1618 46.8388 84.4703C45.5793 83.855 44.4999 82.9357 43.0831 81.7957C41.7683 80.7378 40.779 79.3146 40.1099 77.7325C39.8324 77.0169 39.612 76.2487 39.4869 75.0955C39.4435 74.3626 39.4407 73.3296 39.5937 71.7998" stroke="#331A2E" stroke-width="3.86958" stroke-linecap="round"/>
<path d="M54.6744 87.6685C54.6659 87.1756 54.5217 85.5429 54.1485 84.1333C53.5015 81.6891 54.1028 77.9888 54.6437 76.7302C54.7766 76.4204 54.9093 76.1217 55.0546 75.8258C55.2 75.53 55.354 75.2461 55.7064 74.4199" stroke="#331A2E" stroke-width="3.86958" stroke-linecap="round"/>
<path d="M67.561 91.6499C69.5957 91.6499 74.4797 91.4497 76.5223 90.8573C77.9929 90.4309 79.3643 90.3145 80.9042 89.3742C82.3348 88.5007 83.5914 87.686 85.0756 86.3166C86.4263 85.0704 87.25 82.7916 88.4774 79.0029C89.0756 77.1563 89.1667 73.5177 88.6034 71.0097C88.2673 69.5136 86.5437 68.2151 85.1977 66.8397C83.7199 65.3294 81.685 64.2845 80.4672 63.3932C79.293 62.4723 77.9082 61.5921 76.7864 60.7626C76.5246 60.5756 76.2471 60.4204 75.77 60.1094" stroke="#331A2E" stroke-width="3.86958" stroke-linecap="round"/>
<path d="M41.2664 55.6167C41.7874 55.6167 43.5188 55.5427 45.7721 54.7832C47.4152 54.2294 48.824 52.9421 49.8708 51.9907C50.7294 51.2105 51.9437 52.4823 52.5461 52.3928C53.1167 51.9736 53.7145 51.3266 54.2995 50.6623C54.57 50.3438 54.7872 50.0632 55.1681 49.417" stroke="#331A2E" stroke-width="3.86958" stroke-linecap="round"/>
<path d="M52.8562 52.6427C53.2144 53.1746 54.1209 54.3891 54.6687 54.7109C55.764 55.3542 57.5923 53.9842 58.9268 53.1377C59.2074 52.9597 59.3642 52.6698 59.4659 52.2945C59.5676 51.9191 59.5676 51.4137 59.4112 51.1199C59.2548 50.8262 58.942 50.7594 58.9131 50.8336C58.5435 51.7833 60.6373 51.7032 60.9834 51.8072C62.2671 52.1928 59.3006 53.9262 59.0532 54.4388C58.9475 54.6578 58.5621 54.5457 58.6409 54.2713C59.1898 52.3598 60.8989 51.3712 61.7733 50.057C62.0169 49.7471 62.2899 49.392 62.601 49.153C62.9122 48.914 63.2532 48.8018 63.8859 48.5303" stroke="#331A2E" stroke-width="3.86958" stroke-linecap="round"/>
<path d="M67.9656 46.9786C67.9656 47.845 68.0235 51.127 68.0708 54.1875C68.0805 54.8195 68.3154 55.2586 68.5531 55.4436C68.7907 55.6287 69.0883 55.5422 69.3298 55.3596C70.4988 54.4756 69.5896 52.0186 69.3423 50.3541C69.2364 49.6408 69.1737 48.9853 68.9675 48.527C68.8719 48.3148 68.454 48.4049 68.2668 48.7443C67.2895 50.5159 68.5825 52.2803 68.8248 53.7228C68.884 54.0749 68.9919 54.4262 69.1794 54.5304C69.3669 54.6347 69.6363 54.4803 69.7751 53.769C70.1542 51.8262 69.8331 50.1533 69.7768 50.0499C68.6192 47.9233 70.9878 54.0094 72.039 55.1153C73.3344 56.4781 75.9448 56.4547 76.8584 56.3707C77.2715 56.3328 77.5493 56.0946 77.4778 55.9943C76.7323 54.9476 74.8476 55.949 73.6116 54.8483C73.0581 54.3554 72.6585 53.8352 72.383 53.2343C72.2359 52.9134 72.2712 52.4867 72.4185 52.2414C73.0347 51.216 74.9149 51.6113 76.1971 50.8697C77.698 50.0014 78.3281 48.8538 78.6312 48.3958C78.7294 48.2474 78.2812 48.1513 77.9793 48.2739C76.6149 48.8282 76.2923 50.1792 75.5054 50.6641C74.038 51.5684 72.375 50.6931 71.8235 50.3342C70.612 49.5457 69.8379 47.9337 68.8014 46.1747C68.5714 45.7843 68.4597 45.4558 68.515 45.1675C68.6315 44.5595 69.4013 44.2049 69.9949 43.7684C71.7989 42.4416 70.5867 39.0977 70.2173 38.5829C69.853 38.0753 68.9636 38.1876 68.2466 38.3108C66.7701 38.5646 66.0791 40.3621 65.4773 41.5415C65.3188 41.852 65.4064 42.2667 65.61 42.5383C65.8136 42.8099 66.2242 42.9582 66.5971 42.9474C68.2692 42.8989 69.6921 40.664 71.5481 40.2529C71.9989 40.153 72.4182 40.2425 72.7119 40.442C73.0056 40.6414 73.1716 41.0266 72.8891 41.4673C72.1462 42.6259 70.755 43.0398 70.0544 43.2889C69.4124 43.5172 68.6754 43.4426 67.949 43.278C66.6324 42.9797 66.3826 41.5928 66.0474 41.1576C64.6743 39.3749 63.0017 46.6862 62.9779 48.7758C62.973 49.2059 63.509 49.2794 64.0514 48.9133C65.4892 47.9427 66.1701 46.4529 66.4031 45.6997C66.514 45.3412 66.5107 45.004 66.2977 44.7867C65.7863 44.2649 64.7333 44.4238 63.7781 44.7085C61.5747 45.3654 61.0898 46.9433 59.6977 46.9535C57.9119 46.9664 56.8246 45.0825 56.5243 44.5201C56.3791 44.2482 56.4788 43.9091 56.587 43.6126C56.6953 43.3161 56.8678 43.0483 57.1378 42.856C58.3272 42.0092 59.9432 42.0219 61.9274 42.0811C62.4065 42.0954 62.679 42.5324 62.8215 42.8962C62.9639 43.26 62.9422 43.6806 62.7947 44.0507C62.4997 44.7907 61.7507 45.2933 61.0712 45.7119C60.7506 45.9093 60.415 45.9612 60.0599 45.9216C59.7048 45.882 59.324 45.7199 59.0768 45.441C58.8296 45.1621 58.7274 44.7713 59.0592 44.1799C60.6505 41.3436 62.8989 41.0063 65.4801 40.2417C66.0091 40.085 66.1749 39.7318 66.1718 39.4326C66.1687 39.1334 65.9633 38.8234 65.6773 38.6074C65.3913 38.3914 65.031 38.2788 64.6259 38.3001C63.7639 38.3452 62.9569 38.9779 62.2994 39.6639C61.1781 40.834 61.8582 42.9345 62.2248 44.3883C62.3079 44.7179 62.1543 45.0983 61.9447 45.2846C61.5182 45.664 60.5549 45.2612 59.6747 44.769C58.0161 43.8414 57.9472 42.0158 57.4189 41.8544C56.8893 41.6926 56.8148 43.6961 57.085 45.4494C57.1857 46.103 57.9116 46.068 58.3993 45.9734C61.214 45.4272 63.348 42.2921 63.4273 41.6084C63.5075 40.9161 62.1635 40.2822 60.6785 39.7632C60.076 39.5526 59.7581 39.5156 59.5328 39.857C58.9072 40.805 59.0418 42.023 59.2024 42.6884C59.2908 43.0548 59.7019 43.3686 60.0375 43.5212C60.3731 43.6737 60.6996 43.6271 60.9657 43.3302C62.4172 41.7111 62.145 39.6107 62.0816 38.7243C61.9435 36.7922 59.45 35.9018 59.3797 35.2514C59.3453 34.9322 59.5206 34.6292 59.8954 34.3136C60.8 33.552 61.9638 33.3176 62.7637 33.3548C64.0953 33.4166 64.5816 34.8012 64.8441 35.5107C65.102 36.2075 64.1932 36.9765 63.4594 37.5118C63.1295 37.7525 62.7457 37.7013 62.5006 37.5343C61.4218 36.7995 61.3889 35.4654 61.2298 35.1067C60.9119 34.39 63.3247 35.6129 64.5115 35.7143C65.006 35.7566 65.2862 35.5066 65.3495 35.2284C65.4128 34.9502 65.252 34.5814 65.0031 34.4715C64.7541 34.3616 64.422 34.5216 64.2509 34.7659C64.0798 35.0102 64.0798 35.3339 64.2439 35.5615C64.4079 35.7892 64.736 35.9111 65.0745 35.94C66.4952 36.0617 68.5475 33.7438 70.7189 32.0518C72.1913 30.9045 73.4329 31.1153 74.0866 31.2805C74.7139 31.4391 74.9707 32.3462 75.2256 33.108C75.3456 33.4669 75.3614 33.7954 75.1865 34.1334C74.0716 36.2873 70.4889 36.7282 67.9019 36.747C67.3229 36.7513 66.9747 36.6311 66.7191 36.7743C66.1535 37.0912 66.138 38.1831 66.2988 39.0641C66.3695 39.4515 66.8588 39.5679 67.2538 39.5929C68.05 39.6434 68.8551 39.2492 69.5905 38.9082C71.1855 38.1686 71.8317 35.4804 72.2396 34.2181C72.3309 33.9355 71.6898 33.7595 71.2375 33.6898C70.3135 33.5474 69.5429 33.9212 69.053 34.3209C67.0807 35.9299 66.1216 40.0306 66.2233 41.7406C66.2462 42.1243 66.8398 42.1943 67.5206 41.8803C70.818 40.3599 71.5398 38.008 72.2802 35.7276C72.4399 35.2358 72.405 34.8603 72.2402 34.6343C72.0754 34.4083 71.728 34.3287 71.5751 34.475C70.0251 35.9595 74.3653 40.3786 75.4318 42.4898C75.656 42.9337 75.5666 43.489 75.4229 43.8042C74.8316 45.1009 72.1392 44.7167 70.7365 44.799C70.0466 44.8395 70.0809 43.2323 70.1838 41.8912C70.2802 40.6352 70.9464 39.8334 71.4671 39.6021C71.7225 39.4887 72.0555 39.8904 72.2409 40.2017C73.5466 42.3943 72.3266 46.1117 71.8576 46.4986C71.6307 46.6857 71.2805 46.6301 71.4571 46.6301C72.3104 46.6301 73.4279 46.4934 74.1662 46.1345C75.5842 45.4452 75.2546 43.1021 74.8819 41.7873C74.4848 40.386 70.9614 39.0833 69.1079 37.4326C68.8326 37.1875 68.9212 36.7572 69.0184 36.456C69.2109 35.8598 69.8479 35.3018 70.0081 34.9126C70.3075 34.1852 68.3376 35.9106 67.7835 36.7427C66.7106 38.3536 66.8565 40.2466 66.9507 41.3215C66.9907 41.7772 67.3031 42.002 67.5822 42.0279C68.1917 42.0845 68.7686 40.9406 69.2229 39.6688C69.5371 38.7896 69.5129 38.0828 69.2405 37.5528C68.8815 36.8541 67.3211 37.1686 66.127 37.285C65.6209 37.3343 65.3626 37.6342 65.1933 37.9705C64.8322 38.6874 64.8998 39.5454 65.0573 40.0887C65.1245 40.3205 65.5295 40.2665 65.7679 40.0858C66.0063 39.9052 66.1587 39.5494 66.164 39.1885C66.1694 38.8277 66.023 38.4726 65.7606 38.268C65.4982 38.0634 65.1243 38.0199 64.762 38.087C64.3996 38.1541 64.0603 38.3331 63.8509 38.6124C62.9718 39.7851 63.3336 41.1828 63.2967 41.5867C63.2546 42.0492 64.0155 40.5022 64.2226 39.6971C64.436 38.8675 64.0322 37.9412 63.4538 37.2222C63.0174 36.6797 62.0372 36.8335 61.4185 36.9688C61.2271 37.0106 61.4847 37.3747 61.75 37.5105C62.0153 37.6463 62.3318 37.639 62.6233 37.539C62.9148 37.439 63.1717 37.2464 63.2982 36.9883C63.4248 36.7303 63.4131 36.4126 63.3382 36.4295C61.8822 36.7577 63.3316 40.0023 63.7457 42.6124C63.8441 43.2327 63.8215 43.6311 63.6421 43.6964C63.099 43.8942 62.4017 43.0473 62.0914 42.8449C60.9507 42.1009 68.5866 40.8537 71.524 40.3186C71.7886 40.2704 71.8771 40.7831 71.9229 41.1246C71.9687 41.4662 71.9277 41.8233 71.7385 42.1498C71.3342 42.8473 70.5354 43.1487 69.8979 43.1874C69.5874 43.2062 69.3207 42.9256 69.1891 42.6334C69.0576 42.3411 69.0737 41.9696 69.2359 41.6489C69.5729 40.9832 70.373 40.7321 70.9348 40.4689C71.1941 40.3474 71.2119 39.966 71.0615 39.7494C70.1439 38.4278 65.6569 38.6481 63.7222 38.1645C62.2255 37.7905 66.7395 36.1314 68.7095 35.5163C70.2319 35.0409 71.4676 34.8625 71.9892 34.5068C72.2428 34.3338 72.3157 33.9874 72.1606 33.8036C72.0055 33.6197 71.5797 33.5606 71.2391 33.6795C70.8985 33.7985 70.656 34.0972 70.4919 34.4085C69.6285 36.0465 70.598 39.4033 71.6865 40.6738C72.1529 41.2181 72.9315 41.205 73.2899 41.8464C73.715 42.6073 73.8918 43.3995 73.7823 43.9759C73.4498 45.7275 70.0142 44.3506 65.622 44.3789C64.7752 44.3843 64.8193 44.8813 64.8663 45.2207C64.9601 45.8968 65.0473 46.74 64.8939 47.5464C64.8302 47.881 64.4337 47.9414 64.2823 47.8181C63.1508 46.8969 64.8538 44.1037 65.0722 42.7938C65.2426 41.7717 67.6774 43.5924 69.4855 43.4564C69.9069 43.4247 70.3334 43.3623 70.4215 43.4219C71.1619 43.9227 68.6461 43.9592 68.112 44.121C67.5959 44.2774 67.9353 45.3015 68.1741 45.984C68.3954 46.6167 68.9485 47.0959 69.1841 47.4173C69.2351 47.4869 68.7872 47.3977 68.5381 47.1998C67.482 46.3609 67.088 45.2056 66.5361 44.9936C65.9307 44.7611 65.2812 45.5729 64.8025 46.1571C64.5682 46.443 64.4815 46.8028 64.5721 46.8461C65.688 47.3789 66.3058 44.6399 66.6891 43.5531C66.8219 43.1766 66.3029 43.0638 65.9457 43.0855C65.5886 43.1073 65.2746 43.2436 65.5195 43.3138C65.7645 43.3841 66.5779 43.3841 66.8034 43.5167C67.0288 43.6494 66.6416 43.9148 66.2839 44.0767C65.64 44.368 64.968 44.3297 64.6556 44.2495C62.9066 43.8006 69.3452 43.1306 70.7677 43.6224C71.479 43.8682 72.208 43.8183 72.7449 43.5944C73.0079 43.4848 73.0805 43.098 73.0358 43.1228C71.7543 43.8328 71.5995 45.5691 71.3252 45.7323C70.5235 46.2095 73.2351 44.6137 73.814 43.4607C73.9577 43.1746 73.8813 42.8224 73.7569 42.529C73.2267 41.279 72.155 40.0926 71.6872 38.5236C71.5815 38.169 71.3784 37.8857 71.1321 37.7182C70.8858 37.5507 70.571 37.5185 70.258 37.5934C69.6098 37.7485 69.1192 38.2806 68.788 38.8959C68.602 39.2414 68.6551 39.7709 68.7371 40.1594C68.8191 40.548 68.9989 40.8094 69.2509 41.0025C70.3646 41.8561 71.9513 42.1139 72.7191 43.2457C73.0601 43.7485 72.1266 44.8542 72.2526 46.0637C72.4068 46.4548 72.7441 46.3941 73.042 46.2483C73.3398 46.1024 73.5879 45.8732 73.4329 44.9327" stroke="#331A2E" stroke-width="3.86958" stroke-linecap="round"/>
<path d="M72.497 51.9115C72.2598 51.6494 71.3699 50.7271 70.3977 50.1807C70.2652 50.2413 70.3046 50.5718 70.5066 50.941C70.7087 51.3101 71.0722 51.7077 71.5698 51.5497" stroke="#331A2E" stroke-width="3.86958" stroke-linecap="round"/>
<path d="M59.2747 45.0168C59.2747 45.0289 59.2747 45.041 58.9741 45.0532C58.6735 45.0655 58.0724 45.0775 57.742 44.9291C57.4116 44.7807 57.3702 44.4715 57.9441 44.5441" stroke="#331A2E" stroke-width="3.86958" stroke-linecap="round"/>
<path d="M71.8696 52.4319C71.8696 52.4198 71.8696 52.4078 71.8627 52.2375C71.8559 52.0672 71.8422 51.7391 71.8889 51.7269C71.9355 51.7147 72.0429 52.0283 72.4008 52.9656" stroke="#331A2E" stroke-width="3.86958" stroke-linecap="round"/>
<path d="M78.6621 60.7488C78.6854 60.7247 78.9327 60.3757 79.3882 59.6856C79.8067 58.9718 80.1139 58.2058 80.284 56.6119C80.3511 55.4129 80.3792 53.4217 80.4082 51.3701" stroke="#331A2E" stroke-width="3.86958" stroke-linecap="round"/>
<path d="M74.6653 54.6612C75.0604 54.6612 76.3748 54.4826 78.2126 53.5139C79.9451 52.6008 80.379 51.1027 80.7253 49.1573C81.1045 47.0265 80.2878 45.4763 79.6866 43.3744C79.1969 41.6625 78.8741 39.9453 78.8855 36.3687C78.8892 35.208 79.7677 34.6943 80.4235 34.3092C81.5484 33.6485 84.9641 33.4865 87.6277 33.9935C89.1818 34.2893 90.3912 35.6152 91.5589 36.4989C93.0736 37.6453 93.9456 38.6681 95.0553 39.8752C96.3139 41.2445 97.0695 43.2429 97.4449 44.8106C97.7263 46.2629 97.9946 47.5756 98.4262 48.9295C98.5321 49.2578 98.6237 49.5594 98.8096 50.444" stroke="#331A2E" stroke-width="3.86958" stroke-linecap="round"/>
<path d="M80.0491 59.8478C81.4653 59.8478 85.0197 59.5133 86.0946 58.6831C86.3229 58.4313 86.503 58.1369 86.6079 57.8225C86.7127 57.508 86.7369 57.1823 86.8348 56.7334" stroke="#331A2E" stroke-width="3.86958" stroke-linecap="round"/>
<path d="M49.8486 59.9346H51.1085" stroke="#331A2E" stroke-width="3.86958" stroke-linecap="round"/>
<path d="M89.2495 70.5929C89.8144 70.5929 91.5096 70.4321 92.8196 69.7787C94.5993 68.891 95.0498 67.3653 95.5246 65.5963C95.8961 64.2126 96.0107 62.3151 97.6656 56.3654C98.3363 53.954 98.8893 52.2283 99.4933 50.9397C100.117 49.6097 101.336 48.793 102.682 48.1101C103.959 47.4619 105.329 47.56 109.221 47.5159C111.051 47.4952 112.21 48.576 113.322 49.3489C113.925 49.7681 114.372 50.3643 114.723 51.0418C115.14 51.8448 115.127 53.3228 115.046 54.8766C114.961 56.5186 113.196 57.7771 112.292 59.0033C111.45 60.1463 112.166 61.9915 112.148 63.5664C112.14 64.2356 111.578 64.7397 111.546 65.363C111.485 66.586 113.098 67.8018 113.7 69.7643C114.66 72.89 113.395 74.2851 113.31 75.9074C113.415 76.2687 113.639 76.4979 113.643 76.4256C113.648 76.3533 113.426 75.9725 113.196 75.5802" stroke="#331A2E" stroke-width="3.86958" stroke-linecap="round"/>
<path d="M75.9312 91.2134C76.7385 91.225 79.2927 91.5768 80.9266 92.1696C82.3706 92.6934 83.8828 92.6351 86.4863 92.7533C93.4369 93.0687 94.869 92.4331 96.4539 91.9775C99.3598 91.1422 100.592 90.0292 102.841 88.7365C104.338 87.8755 105.793 87.0338 106.789 86.0274C108.1 84.7027 108.979 82.65 109.654 81.4607C110.49 80.3204 111.377 79.0736 112.291 77.9996C112.468 77.7128 112.558 77.406 112.686 76.9766" stroke="#331A2E" stroke-width="3.86958" stroke-linecap="round"/>
<path d="M89.3044 76.1882C89.659 76.3084 90.9241 76.6394 92.7769 76.6974C95.8576 76.7939 98.0981 75.8351 99.4576 75.2381C100.612 74.5496 101.752 73.4551 103.577 71.2906C103.946 70.817 104.105 70.55 104.388 70.002" stroke="#331A2E" stroke-width="3.86958" stroke-linecap="round"/>
<path d="M95.1316 21.9751C95.3861 21.7375 96.4867 20.5444 97.7392 19.3137C99.8068 17.282 101.334 16.9461 102.893 16.4378C104.486 15.9185 105.771 17.103 106.896 17.7324C108.087 18.3996 109.139 19.456 110.105 20.5647C111.133 21.7445 112.731 23.9433 113.953 25.8803C115.579 28.4559 116.374 30.8059 117.297 33.0726C117.907 34.5689 118.145 37.5912 117.723 39.6254C117.434 41.0181 115.362 41.4511 114.308 42.3097C113.147 43.2557 112.207 44.2755 110.574 45.727C110.179 46.0731 109.904 46.3095 109.626 46.5116C109.348 46.7136 109.074 46.874 108.299 47.3269" stroke="#331A2E" stroke-width="3.86958" stroke-linecap="round"/>
</svg>
